<?xml version="1.0" encoding="UTF-8" standalone="no"?>
<svg
   xmlns:dc="http://purl.org/dc/elements/1.1/"
   xmlns:cc="http://creativecommons.org/ns#"
   xmlns:rdf="http://www.w3.org/1999/02/22-rdf-syntax-ns#"
   xmlns:svg="http://www.w3.org/2000/svg"
   xmlns="http://www.w3.org/2000/svg"
   xmlns:xlink="http://www.w3.org/1999/xlink"
   xmlns:sodipodi="http://sodipodi.sourceforge.net/DTD/sodipodi-0.dtd"
   xmlns:inkscape="http://www.inkscape.org/namespaces/inkscape"
   width="524.40424"
   height="198.22969"
   version="1.1"
   id="svg4612"
   sodipodi:docname="car2.svg"
   inkscape:version="0.92.0 r15299">
  <sodipodi:namedview
     pagecolor="#ffffff"
     bordercolor="#666666"
     borderopacity="1"
     objecttolerance="10"
     gridtolerance="10"
     guidetolerance="10"
     inkscape:pageopacity="0"
     inkscape:pageshadow="2"
     inkscape:window-width="1366"
     inkscape:window-height="715"
     id="namedview4614"
     showgrid="false"
     fit-margin-top="0"
     fit-margin-left="0"
     fit-margin-right="0"
     fit-margin-bottom="0"
     inkscape:zoom="0.364"
     inkscape:cx="664.52589"
     inkscape:cy="519.11648"
     inkscape:window-x="-8"
     inkscape:window-y="-8"
     inkscape:window-maximized="1"
     inkscape:current-layer="imagebot_2" />
  <defs
     id="defs4490">
    <linearGradient
       id="imagebot_122">
      <stop
         stop-color="#888a85"
         id="imagebot_124"
         offset="0" />
      <stop
         stop-color="#888a85"
         stop-opacity="0"
         id="imagebot_123"
         offset="1" />
    </linearGradient>
    <linearGradient
       y2="-320.28329"
       x2="90.371361"
       y1="-320.28329"
       x1="188.55347"
       id="imagebot_110"
       xlink:href="#imagebot_122"
       gradientTransform="matrix(1.2804251,0,0,0.78099062,188.1829,1301.656)"
       gradientUnits="userSpaceOnUse" />
    <linearGradient
       y2="68.853676"
       x2="627.62561"
       y1="68.853676"
       x1="725.80768"
       id="imagebot_112"
       xlink:href="#imagebot_122"
       gradientTransform="matrix(1.2804251,0,0,0.7809906,188.1829,1301.656)"
       gradientUnits="userSpaceOnUse" />
  </defs>
  <metadata
     id="imagebot_121">image/svg+xml<rdf:RDF>
  <cc:Work
     rdf:about="">
    <dc:format>image/svg+xml</dc:format>
    <dc:type
       rdf:resource="http://purl.org/dc/dcmitype/StillImage" />
    <dc:title></dc:title>
  </cc:Work>
</rdf:RDF>
</metadata>
  <g
     id="imagebot_2"
     label="Layer 1"
     transform="translate(-188.1829,-1301.656)">
    <g
       transform="translate(-57.8935,670.7009)"
       label="Layer 1"
       id="imagebot_113">
      <rect
         stroke-miterlimit="4"
         id="imagebot_120"
         width="779.99994"
         height="360.00012"
         x="87.142853"
         y="-443.35208"
         style="fill:#000000;stroke-width:0.5;stroke-miterlimit:4" />
      <g
         font-style="normal"
         font-weight="normal"
         font-size="40px"
         id="imagebot_114"
         transform="translate(84.285709)"
         style="font-style:normal;font-weight:normal;font-size:40px;font-family:sans-serif;fill:#ffffff;stroke-width:1px">
        <path
           d="m 633.92578,-422.51224 c 1.77083,0 3.54167,0 5.3125,0 4.3099,8.13151 8.61979,16.26302 12.92969,24.39453 0,-8.13151 0,-16.26302 0,-24.39453 1.1286,0.40162 3.93316,-0.87271 3.82812,0.76255 0,9.46587 0,18.93174 0,28.39761 -1.77083,0 -3.54167,0 -5.3125,0 -4.30989,-8.13151 -8.61979,-16.26302 -12.92968,-24.39453 0,8.13151 0,16.26302 0,24.39453 -1.12861,-0.40162 -3.93316,0.87271 -3.82813,-0.76255 0,-9.46587 0,-18.93174 0,-28.39761 z"
           id="imagebot_119"
           inkscape:connector-curvature="0" />
        <path
           d="m 663.84766,-422.51224 c 1.18456,0.38473 3.98499,-0.84642 3.94531,0.76255 0,9.46587 0,18.93174 0,28.39761 -1.18456,-0.38473 -3.98499,0.84642 -3.94531,-0.76255 0,-9.46587 0,-18.93174 0,-28.39761 z"
           id="imagebot_118"
           inkscape:connector-curvature="0" />
        <path
           d="m 695.52734,-397.51224 c 0,-2.61068 0,-5.22135 0,-7.83203 -2.14844,0 -4.29687,0 -6.44531,0 0.1849,-1.40419 -0.7774,-3.95559 1.52509,-3.24219 2.94216,0 5.88431,0 8.82647,0 0,4.17318 0,8.34635 0,12.51953 -6.249,4.30163 -15.94012,4.83637 -21.62109,-0.70312 -4.68749,-5.16096 -4.88011,-13.36684 -2.02904,-19.4664 3.79026,-7.32401 13.71759,-8.22061 20.61791,-5.23086 2.90389,0.33485 2.24584,2.9241 2.2705,5.0139 -2.21277,-1.12695 -6.73977,-3.99553 -10.48278,-3.33231 -4.64184,-0.19155 -9.06817,3.17296 -9.68781,7.85637 -1.03182,5.43165 -0.37346,12.95012 5.65888,15.15442 3.64831,1.16464 7.95015,1.09064 11.36718,-0.73731 z"
           id="imagebot_117"
           inkscape:connector-curvature="0" />
        <path
           d="m 706.66016,-422.51224 c 1.18456,0.38473 3.98499,-0.84642 3.94531,0.76255 0,3.73019 0,7.46039 0,11.19058 4.77865,0 9.55729,0 14.33594,0 0,-3.98438 0,-7.96875 0,-11.95313 1.18456,0.38473 3.98499,-0.84642 3.94531,0.76255 0,9.46587 0,18.93174 0,28.39761 -1.18456,-0.38473 -3.98499,0.84642 -3.94531,-0.76255 0,-4.37472 0,-8.74945 0,-13.12417 -4.77865,0 -9.55729,0 -14.33594,0 0,4.62891 0,9.25781 0,13.88672 -1.18456,-0.38473 -3.98499,0.84642 -3.94531,-0.76255 0,-9.46587 0,-18.93174 0,-28.39761 z"
           id="imagebot_116"
           inkscape:connector-curvature="0" />
        <path
           d="m 732.69531,-422.51224 c 8.22266,0 16.44531,0 24.66797,0 -0.30503,1.22538 0.90541,3.96622 -1.27091,3.32031 -3.02688,0 -6.05377,0 -9.08065,0 0,8.61328 0,17.22657 0,25.83985 -1.19356,-0.38224 -3.99405,0.84245 -3.96485,-0.76255 0,-8.3591 0,-16.7182 0,-25.0773 -3.45052,0 -6.90104,0 -10.35156,0 0,-1.10677 0,-2.21354 0,-3.32031 z"
           id="imagebot_115"
           inkscape:connector-curvature="0" />
      </g>
    </g>
    <path
       transform="translate(-57.8935,670.7009)"
       label="Layer 1"
       id="imagebot_111"
       d="M 951.52958,34.32188 770.45014,-14.28102 745.80728,111.19854 949.38672,64.41283 Z"
       style="fill:url(#imagebot_112);fill-rule:evenodd;stroke-width:1px"
       inkscape:connector-curvature="0" />
    <path
       transform="translate(-57.8935,670.7009)"
       label="Layer 1"
       d="M 263.61574,-269.59044 82.5363,-318.19334 57.89345,-192.71378 261.47288,-239.49949 Z"
       id="imagebot_109"
       style="fill:url(#imagebot_110);fill-rule:evenodd;stroke-width:1px"
       inkscape:connector-curvature="0" />
    <ellipse
       transform="translate(-57.8935,670.7009)"
       label="Layer 1"
       stroke-miterlimit="4"
       id="imagebot_108"
       cx="649.88568"
       cy="-145.88695"
       rx="42.082729"
       ry="1.99663"
       style="fill:#888a85;stroke-width:0.5;stroke-miterlimit:4" />
    <ellipse
       transform="translate(-57.8935,670.7009)"
       label="Layer 1"
       stroke-miterlimit="4"
       ry="1.99663"
       rx="42.082729"
       cy="-145.88695"
       cx="391.24588"
       id="imagebot_107"
       style="fill:#888a85;stroke-width:0.5;stroke-miterlimit:4" />
    <path
       transform="translate(-57.8935,670.7009)"
       label="Layer 1"
       stroke-miterlimit="4"
       id="imagebot_106"
       d="m 246.0764,-265.68768 51.09166,-12.47162 99.42322,1.35994 52.58243,-98.98433 140.48774,32.48022 47.1393,66.50411 h 140.071 V -176.3235 H 246.0764 Z"
       inkscape:connector-curvature="0"
       style="fill:#3465a4;stroke-width:0.5;stroke-miterlimit:4" />
    <path
       transform="translate(-57.8935,670.7009)"
       label="Layer 1"
       stroke-miterlimit="4"
       d="m 1587.0805,-180.6242 h 41.3478 v 26.2993 h -41.3478 z"
       id="imagebot_105"
       inkscape:connector-curvature="0"
       style="fill:#ad7fa8;stroke-width:0.5;stroke-miterlimit:4" />
    <path
       transform="translate(-57.8935,670.7009)"
       label="Layer 1"
       stroke-miterlimit="4"
       id="imagebot_104"
       d="m 1639.8181,-180.6242 h 41.3478 v 26.2993 h -41.3478 z"
       inkscape:connector-curvature="0"
       style="fill:#edd400;stroke-width:0.5;stroke-miterlimit:4" />
    <path
       transform="translate(-57.8935,670.7009)"
       label="Layer 1"
       stroke-miterlimit="4"
       id="imagebot_103"
       d="m 1587.0805,-143.70189 h 41.3478 v 26.2993 h -41.3478 z"
       inkscape:connector-curvature="0"
       style="fill:#f57900;stroke-width:0.5;stroke-miterlimit:4" />
    <path
       transform="translate(-57.8935,670.7009)"
       label="Layer 1"
       stroke-miterlimit="4"
       d="m 1639.8181,-143.70189 h 41.3478 v 26.2993 h -41.3478 z"
       id="imagebot_102"
       inkscape:connector-curvature="0"
       style="fill:#729fcf;stroke-width:0.5;stroke-miterlimit:4" />
    <path
       transform="translate(-57.8935,670.7009)"
       label="Layer 1"
       stroke-miterlimit="4"
       d="m 1587.0805,-109.38605 h 41.3478 v 26.29931 h -41.3478 z"
       id="imagebot_101"
       inkscape:connector-curvature="0"
       style="fill:#75507b;stroke-width:0.5;stroke-miterlimit:4" />
    <path
       transform="translate(-57.8935,670.7009)"
       label="Layer 1"
       stroke-miterlimit="4"
       id="imagebot_100"
       d="m 1639.8181,-109.38605 h 41.3478 v 26.29931 h -41.3478 z"
       inkscape:connector-curvature="0"
       style="fill:#e9b96e;stroke-width:0.5;stroke-miterlimit:4" />
    <circle
       transform="translate(-57.8935,670.7009)"
       label="Layer 1"
       stroke-miterlimit="4"
       r="52.219452"
       cy="-197.82564"
       cx="389.8335"
       id="imagebot_99"
       style="fill:#2e3436;stroke-width:0.5;stroke-miterlimit:4" />
    <circle
       transform="translate(-57.8935,670.7009)"
       label="Layer 1"
       stroke-miterlimit="4"
       id="imagebot_98"
       cx="650.31635"
       cy="-197.82564"
       r="52.219452"
       style="fill:#2e3436;stroke-width:0.5;stroke-miterlimit:4" />
    <path
       transform="translate(-57.8935,670.7009)"
       label="Layer 1"
       id="imagebot_97"
       d="m 295.0202,-271.37615 -41.94166,9.35269 -2.77792,29.30968 h 22.24369 z"
       inkscape:connector-curvature="0"
       style="fill:#ffffff;fill-rule:evenodd;stroke-width:1px" />
    <path
       transform="translate(-57.8935,670.7009)"
       label="Layer 1"
       d="m 770.16432,-272.03215 4.59334,23.57139 h -20.58823 v -23.57139 z"
       id="imagebot_96"
       inkscape:connector-curvature="0"
       style="fill:#cc0000;fill-rule:evenodd;stroke-width:0.48512px" />
    <path
       transform="translate(-57.8935,670.7009)"
       label="Layer 1"
       id="imagebot_95"
       d="m 453.25826,-362.16751 -43.87525,85.14405 h 52.56341 z"
       inkscape:connector-curvature="0"
       style="fill:#ffffff;fill-rule:evenodd;stroke-width:1px" />
    <path
       transform="translate(-57.8935,670.7009)"
       label="Layer 1"
       id="imagebot_94"
       d="m 470.63459,-355.6514 c 0,0 2.17206,79.06235 4.7785,78.62794 2.60647,-0.43442 144.22363,0 144.22363,0 l -34.34987,-59.49573 z"
       inkscape:connector-curvature="0"
       style="fill:#ffffff;fill-rule:evenodd;stroke-width:1px" />
    <ellipse
       transform="translate(-57.8935,670.7009)"
       label="Layer 1"
       stroke-miterlimit="4"
       ry="1.99663"
       rx="42.082729"
       cy="-145.88695"
       cx="1329.3007"
       id="imagebot_93"
       style="fill:#888a85;stroke-width:0.5;stroke-miterlimit:4" />
    <ellipse
       transform="translate(-57.8935,670.7009)"
       label="Layer 1"
       stroke-miterlimit="4"
       id="imagebot_92"
       cx="1070.6609"
       cy="-145.88695"
       rx="42.082729"
       ry="1.99663"
       style="fill:#888a85;stroke-width:0.5;stroke-miterlimit:4" />
    <path
       transform="translate(-57.8935,670.7009)"
       label="Layer 1"
       stroke-miterlimit="4"
       d="m 985.84848,-281.44222 116.94342,4.28572 36.4033,-76.90891 186.9505,-18.52198 -9.93,95.78803 90.4281,-17.85714 37.5,101.19014 -64.8582,17.14286 H 967.99134 l -28.17949,-24.94077 z"
       id="imagebot_91"
       inkscape:connector-curvature="0"
       style="fill:#4e9a06;stroke-width:0.5;stroke-miterlimit:4" />
    <circle
       transform="translate(-57.8935,670.7009)"
       label="Layer 1"
       stroke-miterlimit="4"
       id="imagebot_90"
       cx="1069.2484"
       cy="-197.82564"
       r="52.219452"
       style="fill:#2e3436;stroke-width:0.5;stroke-miterlimit:4" />
    <circle
       transform="translate(-57.8935,670.7009)"
       label="Layer 1"
       stroke-miterlimit="4"
       r="52.219452"
       cy="-197.82564"
       cx="1329.7313"
       id="imagebot_89"
       style="fill:#2e3436;stroke-width:0.5;stroke-miterlimit:4" />
    <path
       transform="translate(-57.8935,670.7009)"
       label="Layer 1"
       d="m 1004.4872,-278.44721 -16.68787,3.29177 -20.20305,30.82491 h 25.27418 z"
       id="imagebot_88"
       inkscape:connector-curvature="0"
       style="fill:#eeeeec;fill-rule:evenodd;stroke-width:1px" />
    <path
       transform="translate(-57.8935,670.7009)"
       label="Layer 1"
       id="imagebot_87"
       d="m 1403.3479,-289.40659 7.9907,22.64636 -20.3669,3.01055 -3.4467,-23.31802 z"
       inkscape:connector-curvature="0"
       style="fill:#cc0000;fill-rule:evenodd;stroke-width:0.48512px" />
    <path
       transform="translate(-57.8935,670.7009)"
       label="Layer 1"
       d="m 1141.7646,-340.44923 -22.6096,63.78291 22.2064,-0.35714 z"
       id="imagebot_86"
       inkscape:connector-curvature="0"
       style="fill:#ffffff;fill-rule:evenodd;stroke-width:1px" />
    <path
       transform="translate(-57.8935,670.7009)"
       label="Layer 1"
       d="m 1149.2918,-343.27704 5.5362,66.25358 h 144.2236 l 14.6129,-84.20857 z"
       id="imagebot_85"
       inkscape:connector-curvature="0"
       style="fill:#ffffff;fill-rule:evenodd;stroke-width:1px" />
    <path
       transform="translate(-57.8935,670.7009)"
       label="Layer 1"
       stroke-miterlimit="4"
       id="imagebot_84"
       d="m 1587.0805,-218.10017 h 41.3478 v 26.2993 h -41.3478 z"
       inkscape:connector-curvature="0"
       style="fill:#3465a4;stroke-width:0.5;stroke-miterlimit:4" />
    <path
       transform="translate(-57.8935,670.7009)"
       label="Layer 1"
       stroke-miterlimit="4"
       d="m 1639.8181,-218.10017 h 41.3478 v 26.2993 h -41.3478 z"
       id="imagebot_83"
       inkscape:connector-curvature="0"
       style="fill:#4e9a06;stroke-width:0.5;stroke-miterlimit:4" />
    <ellipse
       transform="translate(-57.8935,670.7009)"
       label="Layer 1"
       stroke-miterlimit="4"
       ry="1.99663"
       rx="42.082729"
       cy="170.36246"
       cx="649.88568"
       id="imagebot_82"
       style="fill:#888a85;stroke-width:0.5;stroke-miterlimit:4" />
    <ellipse
       transform="translate(-57.8935,670.7009)"
       label="Layer 1"
       stroke-miterlimit="4"
       id="imagebot_81"
       cx="391.24588"
       cy="170.36246"
       rx="42.082729"
       ry="1.99663"
       style="fill:#888a85;stroke-width:0.5;stroke-miterlimit:4" />
    <path
       transform="translate(-57.8935,670.7009)"
       label="Layer 1"
       stroke-miterlimit="4"
       d="m 262.97542,65.52147 133.61586,-36.07142 62.93957,-83.62719 134.41631,-5.01978 42.85359,88.64696 102.571,10 18.90476,77.9449 -26.7619,22.53097 H 249.76114 l 0.5975,-54.64305 z"
       id="imagebot_80"
       inkscape:connector-curvature="0"
       style="fill:#ad7fa8;stroke-width:0.5;stroke-miterlimit:4" />
    <circle
       transform="translate(-57.8935,670.7009)"
       label="Layer 1"
       stroke-miterlimit="4"
       id="imagebot_79"
       cx="389.8335"
       cy="118.42379"
       r="52.219452"
       style="fill:#2e3436;stroke-width:0.5;stroke-miterlimit:4" />
    <circle
       transform="translate(-57.8935,670.7009)"
       label="Layer 1"
       stroke-miterlimit="4"
       r="52.219452"
       cy="118.42379"
       cx="650.31635"
       id="imagebot_78"
       style="fill:#2e3436;stroke-width:0.5;stroke-miterlimit:4" />
    <path
       transform="translate(-57.8935,670.7009)"
       label="Layer 1"
       d="m 319.80047,58.98041 -55.90087,9.61137 -8.03571,15.12243 38.2223,1.07142 z"
       id="imagebot_77"
       inkscape:connector-curvature="0"
       style="fill:#eeeeec;fill-rule:evenodd;stroke-width:1px" />
    <path
       transform="translate(-57.8935,670.7009)"
       label="Layer 1"
       id="imagebot_76"
       d="m 736.23575,42.43154 4.59334,23.57139 H 720.24086 V 42.43154 Z"
       inkscape:connector-curvature="0"
       style="fill:#cc0000;fill-rule:evenodd;stroke-width:0.48512px" />
    <path
       transform="translate(-57.8935,670.7009)"
       label="Layer 1"
       d="m 460.40112,-43.4181 -51.01811,72.64405 h 52.56341 z"
       id="imagebot_75"
       inkscape:connector-curvature="0"
       style="fill:#ffffff;fill-rule:evenodd;stroke-width:1px" />
    <path
       transform="translate(-57.8935,670.7009)"
       label="Layer 1"
       d="m 467.06316,-48.33056 4.7785,77.55651 h 143.50935 l -28.27845,-80.9243 z"
       id="imagebot_74"
       inkscape:connector-curvature="0"
       style="fill:#ffffff;fill-rule:evenodd;stroke-width:1px" />
    <ellipse
       transform="translate(-57.8935,670.7009)"
       label="Layer 1"
       stroke-miterlimit="4"
       id="imagebot_73"
       cx="1329.3007"
       cy="170.36246"
       rx="42.082729"
       ry="1.99663"
       style="fill:#888a85;stroke-width:0.5;stroke-miterlimit:4" />
    <ellipse
       transform="translate(-57.8935,670.7009)"
       label="Layer 1"
       stroke-miterlimit="4"
       ry="1.99663"
       rx="42.082729"
       cy="170.36246"
       cx="1070.6609"
       id="imagebot_72"
       style="fill:#888a85;stroke-width:0.5;stroke-miterlimit:4" />
    <path
       transform="translate(-57.8935,670.7009)"
       label="Layer 1"
       stroke-miterlimit="4"
       id="imagebot_71"
       d="m 925.49134,52.07695 18.49615,-26.26396 129.34011,-4.82143 48.695,-67.89894 176.8533,-16.51217 111.284,12.46095 46.1268,90.40865 V 139.92591 H 941.65378 l -16.16244,-22.96502 z"
       inkscape:connector-curvature="0"
       style="fill:#f57900;stroke-width:0.5;stroke-miterlimit:4" />
    <circle
       transform="translate(-57.8935,670.7009)"
       label="Layer 1"
       stroke-miterlimit="4"
       r="52.219452"
       cy="118.42379"
       cx="1069.2484"
       id="imagebot_70"
       style="fill:#2e3436;stroke-width:0.5;stroke-miterlimit:4" />
    <circle
       transform="translate(-57.8935,670.7009)"
       label="Layer 1"
       stroke-miterlimit="4"
       id="imagebot_69"
       cx="1329.7313"
       cy="118.42379"
       r="52.219452"
       style="fill:#2e3436;stroke-width:0.5;stroke-miterlimit:4" />
    <path
       transform="translate(-57.8935,670.7009)"
       label="Layer 1"
       id="imagebot_68"
       d="m 949.18351,30.73113 -9.10645,12.63567 -0.23459,22.99624 17.14127,-0.11729 11.68514,-35.6746 z"
       inkscape:connector-curvature="0"
       style="fill:#ffffff;fill-rule:evenodd;stroke-width:1px" />
    <path
       transform="translate(-57.8935,670.7009)"
       label="Layer 1"
       d="m 1443.2658,37.39873 4.5933,23.57139 h -20.5882 V 37.39873 Z"
       id="imagebot_67"
       inkscape:connector-curvature="0"
       style="fill:#cc0000;fill-rule:evenodd;stroke-width:0.48512px" />
    <path
       transform="translate(-57.8935,670.7009)"
       label="Layer 1"
       id="imagebot_66"
       d="m 1124.7727,-35.40559 -42.4034,61.41725 h 31.4921 z"
       inkscape:connector-curvature="0"
       style="fill:#ffffff;fill-rule:evenodd;stroke-width:1px" />
    <path
       transform="translate(-57.8935,670.7009)"
       label="Layer 1"
       id="imagebot_65"
       d="m 1131.3914,-36.119 -2.6349,62.13066 h 104.2236 l -5.4212,-69.49573 z"
       inkscape:connector-curvature="0"
       style="fill:#ffffff;fill-rule:evenodd;stroke-width:1px" />
    <ellipse
       transform="translate(-57.8935,670.7009)"
       label="Layer 1"
       stroke-miterlimit="4"
       id="imagebot_64"
       cx="649.88568"
       cy="497.03769"
       rx="42.082729"
       ry="1.99663"
       style="fill:#888a85;stroke-width:0.5;stroke-miterlimit:4" />
    <ellipse
       transform="translate(-57.8935,670.7009)"
       label="Layer 1"
       stroke-miterlimit="4"
       ry="1.99663"
       rx="42.082729"
       cy="497.03769"
       cx="391.24588"
       id="imagebot_63"
       style="fill:#888a85;stroke-width:0.5;stroke-miterlimit:4" />
    <path
       transform="translate(-57.8935,670.7009)"
       label="Layer 1"
       stroke-miterlimit="4"
       id="imagebot_62"
       d="m 208.93355,425.05384 187.65773,-58.92857 79.36814,-44.69861 139.05917,-4.3055 91.06787,44.7184 55.07101,8.21428 11.10594,22.82019 3.20307,51.24465 -17.5233,22.48245 H 226.43354 Z"
       inkscape:connector-curvature="0"
       style="fill:#edd400;stroke-width:0.5;stroke-miterlimit:4" />
    <circle
       transform="translate(-57.8935,670.7009)"
       label="Layer 1"
       stroke-miterlimit="4"
       r="52.219452"
       cy="445.09903"
       cx="389.8335"
       id="imagebot_61"
       style="fill:#2e3436;stroke-width:0.5;stroke-miterlimit:4" />
    <circle
       transform="translate(-57.8935,670.7009)"
       label="Layer 1"
       stroke-miterlimit="4"
       id="imagebot_60"
       cx="650.31635"
       cy="445.09903"
       r="52.219452"
       style="fill:#2e3436;stroke-width:0.5;stroke-miterlimit:4" />
    <path
       transform="translate(-57.8935,670.7009)"
       label="Layer 1"
       id="imagebot_59"
       d="m 256.11574,414.76277 -39.29373,11.03995 1.42857,6.19385 39.65087,-2.14285 z"
       inkscape:connector-curvature="0"
       style="fill:#eeeeec;fill-rule:evenodd;stroke-width:1px" />
    <path
       transform="translate(-57.8935,670.7009)"
       label="Layer 1"
       d="m 756.59289,373.39248 6.7362,21.42853 -8.08823,0.35715 -14.64286,-21.78568 z"
       id="imagebot_58"
       inkscape:connector-curvature="0"
       style="fill:#cc0000;fill-rule:evenodd;stroke-width:0.48512px" />
    <path
       transform="translate(-57.8935,670.7009)"
       label="Layer 1"
       id="imagebot_57"
       d="m 615.75825,323.9714 -1.01811,32.28691 51.49198,-0.71428 z"
       inkscape:connector-curvature="0"
       style="fill:#ffffff;fill-rule:evenodd;stroke-width:1px" />
    <path
       transform="translate(-57.8935,670.7009)"
       label="Layer 1"
       id="imagebot_56"
       d="m 478.13459,327.27323 -70.22149,45.41365 199.58076,-17.14285 1.00727,-31.28145 z"
       inkscape:connector-curvature="0"
       style="fill:#ffffff;fill-rule:evenodd;stroke-width:1px" />
    <ellipse
       transform="translate(-57.8935,670.7009)"
       label="Layer 1"
       stroke-miterlimit="4"
       ry="1.99663"
       rx="42.082729"
       cy="497.03769"
       cx="1329.3007"
       id="imagebot_55"
       style="fill:#888a85;stroke-width:0.5;stroke-miterlimit:4" />
    <ellipse
       transform="translate(-57.8935,670.7009)"
       label="Layer 1"
       stroke-miterlimit="4"
       id="imagebot_54"
       cx="1070.6609"
       cy="497.03769"
       rx="42.082729"
       ry="1.99663"
       style="fill:#888a85;stroke-width:0.5;stroke-miterlimit:4" />
    <path
       transform="translate(-57.8935,670.7009)"
       label="Layer 1"
       stroke-miterlimit="4"
       d="m 925.49134,382.03517 150.51486,-15.9099 52.5824,-70.70006 140.4878,4.19595 47.1393,66.50411 h 109.7664 l 23.5766,10.34766 5.7963,77.64686 -12.7054,12.48134 H 925.49134 l -8.83883,-9.4714 v -66.16498 z"
       id="imagebot_53"
       inkscape:connector-curvature="0"
       style="fill:#729fcf;stroke-width:0.5;stroke-miterlimit:4" />
    <circle
       transform="translate(-57.8935,670.7009)"
       label="Layer 1"
       stroke-miterlimit="4"
       id="imagebot_52"
       cx="1069.2484"
       cy="445.09903"
       r="52.219452"
       style="fill:#2e3436;stroke-width:0.5;stroke-miterlimit:4" />
    <circle
       transform="translate(-57.8935,670.7009)"
       label="Layer 1"
       stroke-miterlimit="4"
       r="52.219452"
       cy="445.09903"
       cx="1329.7313"
       id="imagebot_51"
       style="fill:#2e3436;stroke-width:0.5;stroke-miterlimit:4" />
    <path
       transform="translate(-57.8935,670.7009)"
       label="Layer 1"
       d="m 959.5354,384.93301 -33.10283,3.29176 -5.3033,11.63203 41.68913,-2.02031 z"
       id="imagebot_50"
       inkscape:connector-curvature="0"
       style="fill:#ffffff;fill-rule:evenodd;stroke-width:1px" />
    <path
       transform="translate(-57.8935,670.7009)"
       label="Layer 1"
       id="imagebot_49"
       d="m 1424.578,370.63994 20.5032,12.20718 -35.993,0.75761 1.0102,-12.20717 z"
       inkscape:connector-curvature="0"
       style="fill:#cc0000;fill-rule:evenodd;stroke-width:0.48512px" />
    <path
       transform="translate(-57.8935,670.7009)"
       label="Layer 1"
       d="m 1132.6732,310.55662 -43.8753,55.34455 h 36.9061 z"
       id="imagebot_48"
       inkscape:connector-curvature="0"
       style="fill:#ffffff;fill-rule:evenodd;stroke-width:1px" />
    <path
       transform="translate(-57.8935,670.7009)"
       label="Layer 1"
       d="m 1150.0495,301.92044 c 0,0 -15.0005,64.41514 -12.3941,63.98073 2.6065,-0.43441 161.3962,0 161.3962,0 l -34.3498,-59.49573 z"
       id="imagebot_47"
       inkscape:connector-curvature="0"
       style="fill:#ffffff;fill-rule:evenodd;stroke-width:1px" />
    <ellipse
       transform="translate(-57.8935,670.7009)"
       label="Layer 1"
       stroke-miterlimit="4"
       ry="1.99663"
       rx="42.082729"
       cy="827.18817"
       cx="649.88568"
       id="imagebot_46"
       style="fill:#888a85;stroke-width:0.5;stroke-miterlimit:4" />
    <ellipse
       transform="translate(-57.8935,670.7009)"
       label="Layer 1"
       stroke-miterlimit="4"
       id="imagebot_45"
       cx="391.24588"
       cy="827.18817"
       rx="42.082729"
       ry="1.99663"
       style="fill:#888a85;stroke-width:0.5;stroke-miterlimit:4" />
    <path
       transform="translate(-57.8935,670.7009)"
       label="Layer 1"
       stroke-miterlimit="4"
       d="m 263.5764,744.84719 131.53555,-44.3575 71.98453,-44.28892 125.62591,-25.24566 74.84521,56.67127 55.76607,-7.51306 47.14694,68.81992 -38.05557,47.81837 H 246.0764 Z"
       id="imagebot_44"
       inkscape:connector-curvature="0"
       style="fill:#75507b;stroke-width:0.5;stroke-miterlimit:4" />
    <circle
       transform="translate(-57.8935,670.7009)"
       label="Layer 1"
       stroke-miterlimit="4"
       id="imagebot_43"
       cx="389.8335"
       cy="775.24957"
       r="52.219452"
       style="fill:#2e3436;stroke-width:0.5;stroke-miterlimit:4" />
    <circle
       transform="translate(-57.8935,670.7009)"
       label="Layer 1"
       stroke-miterlimit="4"
       r="52.219452"
       cy="775.24957"
       cx="650.31635"
       id="imagebot_42"
       style="fill:#2e3436;stroke-width:0.5;stroke-miterlimit:4" />
    <path
       transform="translate(-57.8935,670.7009)"
       label="Layer 1"
       d="m 310.58528,733.51006 -40.90613,13.15742 -5.71429,16.90814 43.57945,-6.78571 z"
       id="imagebot_41"
       inkscape:connector-curvature="0"
       style="fill:#eeeeec;fill-rule:evenodd;stroke-width:1px" />
    <path
       transform="translate(-57.8935,670.7009)"
       label="Layer 1"
       id="imagebot_40"
       d="m 720.16178,684.628 14.44232,22.05615 -19.57807,-0.75762 -9.09138,-18.77315 z"
       inkscape:connector-curvature="0"
       style="fill:#ef2929;fill-rule:evenodd;stroke-width:0.48512px" />
    <path
       transform="translate(-57.8935,670.7009)"
       label="Layer 1"
       d="m 468.65199,660.96797 -61.39446,39.91036 169.95279,-9.37237 8.07653,-54.95004 z"
       id="imagebot_39"
       inkscape:connector-curvature="0"
       style="fill:#ffffff;fill-rule:evenodd;stroke-width:1px" />
    <ellipse
       label="Layer 1"
       stroke-miterlimit="4"
       id="imagebot_38"
       cx="1329.3007"
       cy="827.18817"
       rx="42.082729"
       ry="1.99663"
       style="fill:#888a85;stroke-width:0.5;stroke-miterlimit:4"
       transform="translate(-57.8935,670.7009)" />
    <ellipse
       label="Layer 1"
       stroke-miterlimit="4"
       ry="1.99663"
       rx="42.082729"
       cy="827.18817"
       cx="1070.6609"
       id="imagebot_37"
       style="fill:#888a85;stroke-width:0.5;stroke-miterlimit:4"
       transform="translate(-57.8935,670.7009)" />
    <path
       label="Layer 1"
       stroke-miterlimit="4"
       id="imagebot_36"
       d="m 938.70562,709.86731 137.30058,-8.03571 46.511,-63.82589 183.4911,0.33736 46.0678,63.48853 h 99.1599 l 5.4913,12.12987 -0.4406,82.79014 H 925.49134 v -76.53236 z"
       inkscape:connector-curvature="0"
       style="fill:#ff6600;stroke-width:0.5;stroke-miterlimit:4"
       transform="translate(-61.7081,643.9981)" />
    <circle
       label="Layer 1"
       stroke-miterlimit="4"
       r="52.219452"
       cy="775.24957"
       cx="1069.2484"
       id="imagebot_35"
       style="fill:#2e3436;stroke-width:0.5;stroke-miterlimit:4"
       transform="translate(-57.8935,670.7009)" />
    <circle
       label="Layer 1"
       stroke-miterlimit="4"
       id="imagebot_34"
       cx="1329.7313"
       cy="775.24957"
       r="52.219452"
       style="fill:#2e3436;stroke-width:0.5;stroke-miterlimit:4"
       transform="translate(-57.8935,670.7009)" />
    <path
       label="Layer 1"
       id="imagebot_33"
       d="m 969.63783,710.62754 -26.79373,1.75423 -12.05357,14.76529 35.45444,-0.35715 z"
       inkscape:connector-curvature="0"
       style="fill:#ffffff;fill-rule:evenodd;stroke-width:1px"
       transform="translate(-57.8935,670.7009)" />
    <path
       label="Layer 1"
       d="m 1449.0111,704.52511 4.5933,10.9821 h -20.5882 v -10.9821 z"
       id="imagebot_32"
       inkscape:connector-curvature="0"
       style="fill:#cc0000;fill-rule:evenodd;stroke-width:0.48512px"
       transform="translate(-57.8935,670.7009)" />
    <path
       label="Layer 1"
       id="imagebot_31"
       d="m 1125.8875,644.12188 -43.161,58.71548 h 37.2064 z"
       inkscape:connector-curvature="0"
       style="fill:#ffffff;fill-rule:evenodd;stroke-width:1px"
       transform="translate(-57.8935,670.7009)" />
    <path
       label="Layer 1"
       id="imagebot_30"
       d="m 1215.7638,643.49514 1.9213,59.34222 h 108.1522 l -25.4212,-59.13858 z"
       inkscape:connector-curvature="0"
       style="fill:#ffffff;fill-rule:evenodd;stroke-width:1px"
       transform="translate(-57.8935,670.7009)" />
    <g
       label="Layer 1"
       font-style="normal"
       font-weight="normal"
       font-size="251.54292px"
       transform="translate(-50.75064,682.1299)"
       id="imagebot_25"
       style="font-style:normal;font-weight:normal;font-size:251.54292297px;font-family:sans-serif;fill:#000000;stroke-width:1px">
      <path
         id="imagebot_29"
         d="m 692.25081,-658.41381 c 0,8.72048 0,17.44097 0,26.16145 -27.41284,-27.74481 -80.87091,-33.89483 -107.03701,-1.46813 -18.81142,27.2134 -18.56035,64.88056 -6.78601,94.86307 16.63891,37.99765 69.8356,41.15668 100.86512,19.8485 13.38179,-14.82691 14.13883,-6.98286 12.9579,7.52157 1.21177,19.02426 -28.89725,20.1338 -42.55841,24.78107 -38.91513,6.92818 -83.83934,-11.10855 -97.74319,-50.2229 -15.58547,-42.89225 -9.27941,-101.48088 33.06884,-126.85048 32.54202,-18.35017 76.50805,-15.61213 107.23276,5.36585 z"
         inkscape:connector-curvature="0" />
      <path
         id="imagebot_28"
         d="m 792.10647,-648.09662 c -11.2179,30.41934 -22.43579,60.83867 -33.65369,91.25801 22.47674,0 44.95347,0 67.43021,0 -11.25884,-30.41934 -22.51768,-60.83867 -33.77652,-91.25801 z m -14.0019,-24.44191 c 9.37554,0 18.75109,0 28.12663,0 23.29556,61.12526 46.59112,122.25051 69.88668,183.37577 -8.59766,0 -17.19532,0 -25.79298,0 -5.56801,-15.68049 -11.13601,-31.36098 -16.70402,-47.04147 -27.55345,0 -55.1069,0 -82.66035,0 -5.56801,15.68049 -11.13601,31.36098 -16.70402,47.04147 -8.72048,0 -17.44096,0 -26.16144,0 23.3365,-61.12526 46.673,-122.25051 70.0095,-183.37577 z"
         inkscape:connector-curvature="0" />
      <path
         id="imagebot_27"
         d="m 989.72979,-575.13934 c 24.80451,12.21557 31.89431,41.42215 44.77811,63.87154 3.7022,7.36835 7.4045,14.73669 11.1067,22.10504 -8.8843,0 -17.7685,0 -26.6528,0 -12.1993,-22.59336 -21.139,-47.24544 -36.81637,-67.69888 -14.52314,-14.42011 -36.21735,-8.56252 -54.56442,-9.80287 0,25.83392 0,51.66783 0,77.50175 -8.27013,0 -16.54026,0 -24.81039,0 0,-61.12526 0,-122.25051 0,-183.37577 28.76627,1.13448 58.18329,-3.07657 86.32874,4.15825 40.39034,10.34577 44.27764,78.47507 4.35353,92.02614 z m -62.14878,-77.01046 c 0,21.69885 0,43.39771 0,65.09656 20.20569,-1.55735 44.4019,5.38569 60.37744,-10.4381 13.98285,-17.16164 7.56692,-50.34455 -16.97462,-53.50123 -14.32413,-2.09745 -28.95801,-0.79204 -43.40282,-1.15723 z"
         inkscape:connector-curvature="0" />
      <path
         id="imagebot_26"
         d="m 1187.5988,-666.52017 c -1.7646,6.58503 3.8824,24.80429 -3.5062,22.56118 -24.7713,-11.15797 -57.4418,-19.22609 -81.2249,-1.82317 -21.2784,19.96738 0.6644,50.56836 26.6355,48.65738 25.0823,4.69346 55.7135,10.15488 65.8334,37.27699 10.2494,26.28505 -1.6459,60.86507 -30.322,68.87338 -30.958,10.17547 -64.7802,4.82939 -94.7125,-6.29471 0,-8.51578 0,-17.03155 0,-25.54733 26.8026,14.99119 62.5453,25.33573 90.8896,8.72048 19.9517,-13.64453 12.8567,-48.60574 -11.2672,-52.98499 -26.1535,-8.19389 -60.2051,-6.80621 -75.5135,-33.79571 -13.3144,-26.45447 0.5087,-62.57883 29.7411,-70.54781 27.1755,-8.59701 56.9066,-3.65927 83.4467,4.90431 z"
         inkscape:connector-curvature="0" />
    </g>
    <path
       transform="translate(-57.8935,670.7009)"
       label="Layer 1"
       id="imagebot_24"
       d="m 1152.1239,267.03085 -10.1295,28.8097 43.1073,1.51151 0.7972,-29.60692 z"
       inkscape:connector-curvature="0"
       style="fill:#3465a4;fill-rule:evenodd;stroke-width:1px" />
    <path
       transform="translate(-57.8935,670.7009)"
       label="Layer 1"
       d="m 1210.2697,268.51807 8.3897,29.76492 -34.1291,-1.01387 -1.4285,-29.73319 z"
       id="imagebot_23"
       inkscape:connector-curvature="0"
       style="fill:#ef2929;fill-rule:evenodd;stroke-width:1px" />
    <path
       transform="translate(-57.8935,670.7009)"
       label="Layer 1"
       d="m 1311.478,-50.83056 5.4928,75.41365 111.0093,-1.07143 -28.9926,-65.56716 z"
       id="imagebot_22"
       inkscape:connector-curvature="0"
       style="fill:#ffffff;fill-rule:evenodd;stroke-width:1px" />
    <path
       transform="translate(-57.8935,670.7009)"
       label="Layer 1"
       id="imagebot_21"
       d="m 1241.1209,-45.47342 6.5642,70.05651 53.5093,-1.07143 -1.8497,-74.13858 z"
       inkscape:connector-curvature="0"
       style="fill:#ffffff;fill-rule:evenodd;stroke-width:1px" />
    <circle
       transform="translate(-57.8935,670.7009)"
       label="Layer 1"
       stroke-miterlimit="4"
       id="imagebot_20"
       cx="389.8335"
       cy="-197.82564"
       r="26.531981"
       style="fill:#888a85;stroke:#888a85;stroke-width:0.44637001;stroke-miterlimit:4" />
    <circle
       transform="translate(-57.8935,670.7009)"
       label="Layer 1"
       stroke-miterlimit="4"
       r="26.531981"
       cy="-197.82564"
       cx="650.31635"
       id="imagebot_19"
       style="fill:#888a85;stroke:#888a85;stroke-width:0.44637001;stroke-miterlimit:4" />
    <circle
       transform="translate(-57.8935,670.7009)"
       label="Layer 1"
       stroke-miterlimit="4"
       r="26.531981"
       cy="-197.82564"
       cx="1071.6864"
       id="imagebot_18"
       style="fill:#888a85;stroke:#888a85;stroke-width:0.44637001;stroke-miterlimit:4" />
    <circle
       transform="translate(-57.8935,670.7009)"
       label="Layer 1"
       stroke-miterlimit="4"
       id="imagebot_17"
       cx="1332.1693"
       cy="-197.82564"
       r="26.531981"
       style="fill:#888a85;stroke:#888a85;stroke-width:0.44637001;stroke-miterlimit:4" />
    <circle
       transform="translate(-57.8935,670.7009)"
       label="Layer 1"
       stroke-miterlimit="4"
       r="26.531981"
       cy="118.35209"
       cx="389.8335"
       id="imagebot_16"
       style="fill:#888a85;stroke:#888a85;stroke-width:0.44637001;stroke-miterlimit:4" />
    <circle
       transform="translate(-57.8935,670.7009)"
       label="Layer 1"
       stroke-miterlimit="4"
       id="imagebot_15"
       cx="650.31635"
       cy="118.35209"
       r="26.531981"
       style="fill:#888a85;stroke:#888a85;stroke-width:0.44637001;stroke-miterlimit:4" />
    <circle
       transform="translate(-57.8935,670.7009)"
       label="Layer 1"
       stroke-miterlimit="4"
       id="imagebot_14"
       cx="1071.6864"
       cy="118.35209"
       r="26.531981"
       style="fill:#888a85;stroke:#888a85;stroke-width:0.44637001;stroke-miterlimit:4" />
    <circle
       transform="translate(-57.8935,670.7009)"
       label="Layer 1"
       stroke-miterlimit="4"
       r="26.531981"
       cy="118.35209"
       cx="1332.1693"
       id="imagebot_13"
       style="fill:#888a85;stroke:#888a85;stroke-width:0.44637001;stroke-miterlimit:4" />
    <circle
       transform="translate(-57.8935,670.7009)"
       label="Layer 1"
       stroke-miterlimit="4"
       id="imagebot_12"
       cx="389.8335"
       cy="445.64148"
       r="26.531981"
       style="fill:#888a85;stroke:#888a85;stroke-width:0.44637001;stroke-miterlimit:4" />
    <circle
       transform="translate(-57.8935,670.7009)"
       label="Layer 1"
       stroke-miterlimit="4"
       r="26.531981"
       cy="445.64148"
       cx="650.31635"
       id="imagebot_11"
       style="fill:#888a85;stroke:#888a85;stroke-width:0.44637001;stroke-miterlimit:4" />
    <circle
       transform="translate(-57.8935,670.7009)"
       label="Layer 1"
       stroke-miterlimit="4"
       r="26.531981"
       cy="445.64148"
       cx="1071.6864"
       id="imagebot_10"
       style="fill:#888a85;stroke:#888a85;stroke-width:0.44637001;stroke-miterlimit:4" />
    <circle
       transform="translate(-57.8935,670.7009)"
       label="Layer 1"
       stroke-miterlimit="4"
       id="imagebot_9"
       cx="1332.1693"
       cy="445.64148"
       r="26.531981"
       style="fill:#888a85;stroke:#888a85;stroke-width:0.44637001;stroke-miterlimit:4" />
    <circle
       transform="translate(-57.8935,670.7009)"
       label="Layer 1"
       stroke-miterlimit="4"
       r="26.531981"
       cy="774.95117"
       cx="389.8335"
       id="imagebot_8"
       style="fill:#888a85;stroke:#888a85;stroke-width:0.44637001;stroke-miterlimit:4" />
    <circle
       transform="translate(-57.8935,670.7009)"
       label="Layer 1"
       stroke-miterlimit="4"
       id="imagebot_7"
       cx="650.31635"
       cy="774.95117"
       r="26.531981"
       style="fill:#888a85;stroke:#888a85;stroke-width:0.44637001;stroke-miterlimit:4" />
    <circle
       label="Layer 1"
       stroke-miterlimit="4"
       id="imagebot_6"
       cx="1071.6864"
       cy="774.95117"
       r="26.531981"
       style="fill:#888a85;stroke:#888a85;stroke-width:0.44637001;stroke-miterlimit:4"
       transform="translate(-57.8935,670.7009)" />
    <circle
       label="Layer 1"
       stroke-miterlimit="4"
       r="26.531981"
       cy="774.95117"
       cx="1332.1693"
       id="imagebot_5"
       style="fill:#888a85;stroke:#888a85;stroke-width:0.44637001;stroke-miterlimit:4"
       transform="translate(-57.8935,670.7009)" />
    <path
       label="Layer 1"
       d="m 1130.4066,643.49514 -0.5786,59.34222 h 76.7236 l -0.7784,-60.21001 z"
       id="imagebot_4"
       inkscape:connector-curvature="0"
       style="fill:#ffffff;fill-rule:evenodd;stroke-width:1px"
       transform="translate(-57.8935,670.7009)" />
    <path
       transform="translate(-57.8935,670.7009)"
       label="Layer 1"
       id="imagebot_3"
       d="m 591.14407,635.15127 -7.50976,55.84963 63.67509,-0.50508 z"
       inkscape:connector-curvature="0"
       style="fill:#ffffff;fill-rule:evenodd;stroke-width:1px" />
    <title
       id="title4609">Layer 1</title>
  </g>
</svg>
