<svg width="1623" height="1500" xmlns="http://www.w3.org/2000/svg" xmlns:xlink="http://www.w3.org/1999/xlink">
 <defs>
  <linearGradient id="imagebot_122">
   <stop stop-color="#888a85" id="imagebot_124" offset="0"/>
   <stop stop-color="#888a85" stop-opacity="0" id="imagebot_123" offset="1"/>
  </linearGradient>
  <linearGradient y2="0.54236" x2="0.28106" y1="0.54236" x1="0.89215" id="imagebot_110" xlink:href="#imagebot_122"/>
  <linearGradient y2="0.54236" x2="0.28106" y1="0.54236" x1="0.89215" id="imagebot_112" xlink:href="#imagebot_122"/>
 </defs>
 <metadata id="imagebot_121">image/svg+xml</metadata>
 <g id="imagebot_2" label="Layer 1">
  <g transform="translate(-57.8935 -48.5901) matrix(1 0 0 1 0 719.291)" label="Layer 1" id="imagebot_113">
   <rect fill="#000000" stroke-width="0.5" stroke-miterlimit="4" id="imagebot_120" width="779.99994" height="360.00012" x="87.14285" y="-443.35208"/>
   <g font-style="normal" font-weight="normal" font-size="40px" font-family="sans-serif" fill="#ffffff" stroke-width="1px" id="imagebot_114" transform="translate(84.285709,0)">
    <path d="M633.92578,-422.51224C635.69661,-422.51224 637.46745,-422.51224 639.23828,-422.51224C643.54818,-414.38073 647.85807,-406.24922 652.16797,-398.11771C652.16797,-406.24922 652.16797,-414.38073 652.16797,-422.51224C653.29657,-422.11062 656.10113,-423.38495 655.99609,-421.74969C655.99609,-412.28382 655.99609,-402.81795 655.99609,-393.35208C654.22526,-393.35208 652.45442,-393.35208 650.68359,-393.35208C646.3737,-401.48359 642.0638,-409.6151 637.75391,-417.74661C637.75391,-409.6151 637.75391,-401.48359 637.75391,-393.35208C636.6253,-393.7537 633.82075,-392.47937 633.92578,-394.11463C633.92578,-403.5805 633.92578,-413.04637 633.92578,-422.51224z" id="imagebot_119"/>
    <path d="M663.84766,-422.51224C665.03222,-422.12751 667.83265,-423.35866 667.79297,-421.74969C667.79297,-412.28382 667.79297,-402.81795 667.79297,-393.35208C666.60841,-393.73681 663.80798,-392.50566 663.84766,-394.11463C663.84766,-403.5805 663.84766,-413.04637 663.84766,-422.51224z" id="imagebot_118"/>
    <path d="M695.52734,-397.51224C695.52734,-400.12292 695.52734,-402.73359 695.52734,-405.34427C693.3789,-405.34427 691.23047,-405.34427 689.08203,-405.34427C689.26693,-406.74846 688.30463,-409.29986 690.60712,-408.58646C693.54928,-408.58646 696.49143,-408.58646 699.43359,-408.58646C699.43359,-404.41328 699.43359,-400.24011 699.43359,-396.06693C693.18459,-391.7653 683.49347,-391.23056 677.8125,-396.77005C673.12501,-401.93101 672.93239,-410.13689 675.78346,-416.23645C679.57372,-423.56046 689.50105,-424.45706 696.40137,-421.46731C699.30526,-421.13246 698.64721,-418.54321 698.67187,-416.45341C696.4591,-417.58036 691.9321,-420.44894 688.18909,-419.78572C683.54725,-419.97727 679.12092,-416.61276 678.50128,-411.92935C677.46946,-406.4977 678.12782,-398.97923 684.16016,-396.77493C687.80847,-395.61029 692.11031,-395.68429 695.52734,-397.51224z" id="imagebot_117"/>
    <path d="M706.66016,-422.51224C707.84472,-422.12751 710.64515,-423.35866 710.60547,-421.74969C710.60547,-418.0195 710.60547,-414.2893 710.60547,-410.55911C715.38412,-410.55911 720.16276,-410.55911 724.94141,-410.55911C724.94141,-414.54349 724.94141,-418.52786 724.94141,-422.51224C726.12597,-422.12751 728.9264,-423.35866 728.88672,-421.74969C728.88672,-412.28382 728.88672,-402.81795 728.88672,-393.35208C727.70216,-393.73681 724.90173,-392.50566 724.94141,-394.11463C724.94141,-398.48935 724.94141,-402.86408 724.94141,-407.2388C720.16276,-407.2388 715.38412,-407.2388 710.60547,-407.2388C710.60547,-402.60989 710.60547,-397.98099 710.60547,-393.35208C709.42091,-393.73681 706.62048,-392.50566 706.66016,-394.11463C706.66016,-403.5805 706.66016,-413.04637 706.66016,-422.51224z" id="imagebot_116"/>
    <path d="M732.69531,-422.51224C740.91797,-422.51224 749.14062,-422.51224 757.36328,-422.51224C757.05825,-421.28686 758.26869,-418.54602 756.09237,-419.19193C753.06549,-419.19193 750.0386,-419.19193 747.01172,-419.19193C747.01172,-410.57865 747.01172,-401.96536 747.01172,-393.35208C745.81816,-393.73432 743.01767,-392.50963 743.04687,-394.11463C743.04687,-402.47373 743.04687,-410.83283 743.04687,-419.19193C739.59635,-419.19193 736.14583,-419.19193 732.69531,-419.19193C732.69531,-420.2987 732.69531,-421.40547 732.69531,-422.51224z" id="imagebot_115"/>
   </g>
  </g>
  <path transform="translate(-57.8935 -48.5901) matrix(1 0 0 1 0 719.291)" label="Layer 1" fill="url(#imagebot_112)" fill-rule="evenodd" stroke-width="1px" id="imagebot_111" d="M951.52958,34.32188L770.45014,-14.28102L745.80728,111.19854L949.38672,64.41283L951.52958,34.32188z"/>
  <path transform="translate(-57.8935 -48.5901) matrix(1 0 0 1 0 719.291)" label="Layer 1" fill="url(#imagebot_110)" fill-rule="evenodd" stroke-width="1px" d="M263.61574,-269.59044L82.5363,-318.19334L57.89345,-192.71378L261.47288,-239.49949L263.61574,-269.59044z" id="imagebot_109"/>
  <ellipse transform="translate(-57.8935 -48.5901) matrix(1 0 0 1 0 719.291)" label="Layer 1" fill="#888a85" stroke-width="0.5" stroke-miterlimit="4" id="imagebot_108" cx="649.88568" cy="-145.88695" rx="42.08273" ry="1.99663"/>
  <ellipse transform="translate(-57.8935 -48.5901) matrix(1 0 0 1 0 719.291)" label="Layer 1" fill="#888a85" stroke-width="0.5" stroke-miterlimit="4" ry="1.99663" rx="42.08273" cy="-145.88695" cx="391.24588" id="imagebot_107"/>
  <path transform="translate(-57.8935 -48.5901) matrix(1 0 0 1 0 719.291)" label="Layer 1" fill="#3465a4" stroke-width="0.5" stroke-miterlimit="4" id="imagebot_106" d="M246.0764,-265.68768L297.16806,-278.1593L396.59128,-276.79936L449.17371,-375.78369L589.66145,-343.30347L636.80075,-276.79936L776.87175,-276.79936L776.87175,-176.3235L246.0764,-176.3235L246.0764,-265.68768z"/>
  <path transform="translate(-57.8935 -48.5901) matrix(1 0 0 1 0 719.291)" label="Layer 1" fill="#ad7fa8" stroke-width="0.5" stroke-miterlimit="4" d="M1587.0805,-180.6242L1628.4283,-180.6242L1628.4283,-154.3249L1587.0805,-154.3249L1587.0805,-180.6242z" id="imagebot_105"/>
  <path transform="translate(-57.8935 -48.5901) matrix(1 0 0 1 0 719.291)" label="Layer 1" fill="#edd400" stroke-width="0.5" stroke-miterlimit="4" id="imagebot_104" d="M1639.8181,-180.6242L1681.1659,-180.6242L1681.1659,-154.3249L1639.8181,-154.3249L1639.8181,-180.6242z"/>
  <path transform="translate(-57.8935 -48.5901) matrix(1 0 0 1 0 719.291)" label="Layer 1" fill="#f57900" stroke-width="0.5" stroke-miterlimit="4" id="imagebot_103" d="M1587.0805,-143.70189L1628.4283,-143.70189L1628.4283,-117.40259L1587.0805,-117.40259L1587.0805,-143.70189z"/>
  <path transform="translate(-57.8935 -48.5901) matrix(1 0 0 1 0 719.291)" label="Layer 1" fill="#729fcf" stroke-width="0.5" stroke-miterlimit="4" d="M1639.8181,-143.70189L1681.1659,-143.70189L1681.1659,-117.40259L1639.8181,-117.40259L1639.8181,-143.70189z" id="imagebot_102"/>
  <path transform="translate(-57.8935 -48.5901) matrix(1 0 0 1 0 719.291)" label="Layer 1" fill="#75507b" stroke-width="0.5" stroke-miterlimit="4" d="M1587.0805,-109.38605L1628.4283,-109.38605L1628.4283,-83.08674L1587.0805,-83.08674L1587.0805,-109.38605z" id="imagebot_101"/>
  <path transform="translate(-57.8935 -48.5901) matrix(1 0 0 1 0 719.291)" label="Layer 1" fill="#e9b96e" stroke-width="0.5" stroke-miterlimit="4" id="imagebot_100" d="M1639.8181,-109.38605L1681.1659,-109.38605L1681.1659,-83.08674L1639.8181,-83.08674L1639.8181,-109.38605z"/>
  <circle transform="translate(-57.8935 -48.5901) matrix(1 0 0 1 0 719.291)" label="Layer 1" fill="#2e3436" stroke-width="0.5" stroke-miterlimit="4" r="52.21945" cy="-197.82564" cx="389.8335" id="imagebot_99"/>
  <circle transform="translate(-57.8935 -48.5901) matrix(1 0 0 1 0 719.291)" label="Layer 1" fill="#2e3436" stroke-width="0.5" stroke-miterlimit="4" id="imagebot_98" cx="650.31635" cy="-197.82564" r="52.21945"/>
  <path transform="translate(-57.8935 -48.5901) matrix(1 0 0 1 0 719.291)" label="Layer 1" fill="#ffffff" fill-rule="evenodd" stroke-width="1px" id="imagebot_97" d="M295.0202,-271.37615L253.07854,-262.02346L250.30062,-232.71378L272.54431,-232.71378L295.0202,-271.37615z"/>
  <path transform="translate(-57.8935 -48.5901) matrix(1 0 0 1 0 719.291)" label="Layer 1" fill="#cc0000" fill-rule="evenodd" stroke-width="0.48512px" d="M770.16432,-272.03215L774.75766,-248.46076L754.16943,-248.46076L754.16943,-272.03215L770.16432,-272.03215z" id="imagebot_96"/>
  <path transform="translate(-57.8935 -48.5901) matrix(1 0 0 1 0 719.291)" label="Layer 1" fill="#ffffff" fill-rule="evenodd" stroke-width="1px" id="imagebot_95" d="M453.25826,-362.16751L409.38301,-277.02346L461.94642,-277.02346L453.25826,-362.16751z"/>
  <path transform="translate(-57.8935 -48.5901) matrix(1 0 0 1 0 719.291)" label="Layer 1" fill="#ffffff" fill-rule="evenodd" stroke-width="1px" id="imagebot_94" d="M470.63459,-355.6514C470.63459,-355.6514 472.80665,-276.58905 475.41309,-277.02346C478.01956,-277.45788 619.63672,-277.02346 619.63672,-277.02346L585.28685,-336.51919L470.63459,-355.6514z"/>
  <ellipse transform="translate(-57.8935 -48.5901) matrix(1 0 0 1 0 719.291)" label="Layer 1" fill="#888a85" stroke-width="0.5" stroke-miterlimit="4" ry="1.99663" rx="42.08273" cy="-145.88695" cx="1329.3007" id="imagebot_93"/>
  <ellipse transform="translate(-57.8935 -48.5901) matrix(1 0 0 1 0 719.291)" label="Layer 1" fill="#888a85" stroke-width="0.5" stroke-miterlimit="4" id="imagebot_92" cx="1070.6609" cy="-145.88695" rx="42.08273" ry="1.99663"/>
  <path transform="translate(-57.8935 -48.5901) matrix(1 0 0 1 0 719.291)" label="Layer 1" fill="#4e9a06" stroke-width="0.5" stroke-miterlimit="4" d="M985.84848,-281.44222L1102.7919,-277.1565L1139.1952,-354.06541L1326.1457,-372.58739L1316.2157,-276.79936L1406.6438,-294.6565L1444.1438,-193.46636L1379.2856,-176.3235L967.99134,-176.3235L939.81185,-201.26427L985.84848,-281.44222z" id="imagebot_91"/>
  <circle transform="translate(-57.8935 -48.5901) matrix(1 0 0 1 0 719.291)" label="Layer 1" fill="#2e3436" stroke-width="0.5" stroke-miterlimit="4" id="imagebot_90" cx="1069.2484" cy="-197.82564" r="52.21945"/>
  <circle transform="translate(-57.8935 -48.5901) matrix(1 0 0 1 0 719.291)" label="Layer 1" fill="#2e3436" stroke-width="0.5" stroke-miterlimit="4" r="52.21945" cy="-197.82564" cx="1329.7313" id="imagebot_89"/>
  <path transform="translate(-57.8935 -48.5901) matrix(1 0 0 1 0 719.291)" label="Layer 1" fill="#eeeeec" fill-rule="evenodd" stroke-width="1px" d="M1004.4872,-278.44721L987.79933,-275.15544L967.59628,-244.33053L992.87046,-244.33053L1004.4872,-278.44721z" id="imagebot_88"/>
  <path transform="translate(-57.8935 -48.5901) matrix(1 0 0 1 0 719.291)" label="Layer 1" fill="#cc0000" fill-rule="evenodd" stroke-width="0.48512px" id="imagebot_87" d="M1403.3479,-289.40659L1411.3386,-266.76023L1390.9717,-263.74968L1387.525,-287.0677L1403.3479,-289.40659z"/>
  <path transform="translate(-57.8935 -48.5901) matrix(1 0 0 1 0 719.291)" label="Layer 1" fill="#ffffff" fill-rule="evenodd" stroke-width="1px" d="M1141.7646,-340.44923L1119.155,-276.66632L1141.3614,-277.02346L1141.7646,-340.44923z" id="imagebot_86"/>
  <path transform="translate(-57.8935 -48.5901) matrix(1 0 0 1 0 719.291)" label="Layer 1" fill="#ffffff" fill-rule="evenodd" stroke-width="1px" d="M1149.2918,-343.27704L1154.828,-277.02346L1299.0516,-277.02346L1313.6645,-361.23203L1149.2918,-343.27704z" id="imagebot_85"/>
  <path transform="translate(-57.8935 -48.5901) matrix(1 0 0 1 0 719.291)" label="Layer 1" fill="#3465a4" stroke-width="0.5" stroke-miterlimit="4" id="imagebot_84" d="M1587.0805,-218.10017L1628.4283,-218.10017L1628.4283,-191.80087L1587.0805,-191.80087L1587.0805,-218.10017z"/>
  <path transform="translate(-57.8935 -48.5901) matrix(1 0 0 1 0 719.291)" label="Layer 1" fill="#4e9a06" stroke-width="0.5" stroke-miterlimit="4" d="M1639.8181,-218.10017L1681.1659,-218.10017L1681.1659,-191.80087L1639.8181,-191.80087L1639.8181,-218.10017z" id="imagebot_83"/>
  <ellipse transform="translate(-57.8935 -48.5901) matrix(1 0 0 1 0 719.291)" label="Layer 1" fill="#888a85" stroke-width="0.5" stroke-miterlimit="4" ry="1.99663" rx="42.08273" cy="170.36246" cx="649.88568" id="imagebot_82"/>
  <ellipse transform="translate(-57.8935 -48.5901) matrix(1 0 0 1 0 719.291)" label="Layer 1" fill="#888a85" stroke-width="0.5" stroke-miterlimit="4" id="imagebot_81" cx="391.24588" cy="170.36246" rx="42.08273" ry="1.99663"/>
  <path transform="translate(-57.8935 -48.5901) matrix(1 0 0 1 0 719.291)" label="Layer 1" fill="#ad7fa8" stroke-width="0.5" stroke-miterlimit="4" d="M262.97542,65.52147L396.59128,29.45005L459.53085,-54.17714L593.94716,-59.19692L636.80075,29.45004L739.37175,39.45004L758.27651,117.39494L731.51461,139.92591L249.76114,139.92591L250.35864,85.28286L262.97542,65.52147z" id="imagebot_80"/>
  <circle transform="translate(-57.8935 -48.5901) matrix(1 0 0 1 0 719.291)" label="Layer 1" fill="#2e3436" stroke-width="0.5" stroke-miterlimit="4" id="imagebot_79" cx="389.8335" cy="118.42379" r="52.21945"/>
  <circle transform="translate(-57.8935 -48.5901) matrix(1 0 0 1 0 719.291)" label="Layer 1" fill="#2e3436" stroke-width="0.5" stroke-miterlimit="4" r="52.21945" cy="118.42379" cx="650.31635" id="imagebot_78"/>
  <path transform="translate(-57.8935 -48.5901) matrix(1 0 0 1 0 719.291)" label="Layer 1" fill="#eeeeec" fill-rule="evenodd" stroke-width="1px" d="M319.80047,58.98041L263.8996,68.59178L255.86389,83.71421L294.08619,84.78563L319.80047,58.98041z" id="imagebot_77"/>
  <path transform="translate(-57.8935 -48.5901) matrix(1 0 0 1 0 719.291)" label="Layer 1" fill="#cc0000" fill-rule="evenodd" stroke-width="0.48512px" id="imagebot_76" d="M736.23575,42.43154L740.82909,66.00293L720.24086,66.00293L720.24086,42.43154L736.23575,42.43154z"/>
  <path transform="translate(-57.8935 -48.5901) matrix(1 0 0 1 0 719.291)" label="Layer 1" fill="#ffffff" fill-rule="evenodd" stroke-width="1px" d="M460.40112,-43.4181L409.38301,29.22595L461.94642,29.22595L460.40112,-43.4181z" id="imagebot_75"/>
  <path transform="translate(-57.8935 -48.5901) matrix(1 0 0 1 0 719.291)" label="Layer 1" fill="#ffffff" fill-rule="evenodd" stroke-width="1px" d="M467.06316,-48.33056L471.84166,29.22595L615.35101,29.22595L587.07256,-51.69835L467.06316,-48.33056z" id="imagebot_74"/>
  <ellipse transform="translate(-57.8935 -48.5901) matrix(1 0 0 1 0 719.291)" label="Layer 1" fill="#888a85" stroke-width="0.5" stroke-miterlimit="4" id="imagebot_73" cx="1329.3007" cy="170.36246" rx="42.08273" ry="1.99663"/>
  <ellipse transform="translate(-57.8935 -48.5901) matrix(1 0 0 1 0 719.291)" label="Layer 1" fill="#888a85" stroke-width="0.5" stroke-miterlimit="4" ry="1.99663" rx="42.08273" cy="170.36246" cx="1070.6609" id="imagebot_72"/>
  <path transform="translate(-57.8935 -48.5901) matrix(1 0 0 1 0 719.291)" label="Layer 1" fill="#f57900" stroke-width="0.5" stroke-miterlimit="4" id="imagebot_71" d="M925.49134,52.07695L943.98749,25.81299L1073.3276,20.99156L1122.0226,-46.90738L1298.8759,-63.41955L1410.1599,-50.9586L1456.2867,39.45005L1456.2867,139.92591L941.65378,139.92591L925.49134,116.96089L925.49134,52.07695z"/>
  <circle transform="translate(-57.8935 -48.5901) matrix(1 0 0 1 0 719.291)" label="Layer 1" fill="#2e3436" stroke-width="0.5" stroke-miterlimit="4" r="52.21945" cy="118.42379" cx="1069.2484" id="imagebot_70"/>
  <circle transform="translate(-57.8935 -48.5901) matrix(1 0 0 1 0 719.291)" label="Layer 1" fill="#2e3436" stroke-width="0.5" stroke-miterlimit="4" id="imagebot_69" cx="1329.7313" cy="118.42379" r="52.21945"/>
  <path transform="translate(-57.8935 -48.5901) matrix(1 0 0 1 0 719.291)" label="Layer 1" fill="#ffffff" fill-rule="evenodd" stroke-width="1px" id="imagebot_68" d="M949.18351,30.73113L940.07706,43.3668L939.84247,66.36304L956.98374,66.24575L968.66888,30.57115L949.18351,30.73113z"/>
  <path transform="translate(-57.8935 -48.5901) matrix(1 0 0 1 0 719.291)" label="Layer 1" fill="#cc0000" fill-rule="evenodd" stroke-width="0.48512px" d="M1443.2658,37.39873L1447.8591,60.97012L1427.2709,60.97012L1427.2709,37.39873L1443.2658,37.39873z" id="imagebot_67"/>
  <path transform="translate(-57.8935 -48.5901) matrix(1 0 0 1 0 719.291)" label="Layer 1" fill="#ffffff" fill-rule="evenodd" stroke-width="1px" id="imagebot_66" d="M1124.7727,-35.40559L1082.3693,26.01166L1113.8614,26.01166L1124.7727,-35.40559z"/>
  <path transform="translate(-57.8935 -48.5901) matrix(1 0 0 1 0 719.291)" label="Layer 1" fill="#ffffff" fill-rule="evenodd" stroke-width="1px" id="imagebot_65" d="M1131.3914,-36.119L1128.7565,26.01166L1232.9801,26.01166L1227.5589,-43.48407L1131.3914,-36.119z"/>
  <ellipse transform="translate(-57.8935 -48.5901) matrix(1 0 0 1 0 719.291)" label="Layer 1" fill="#888a85" stroke-width="0.5" stroke-miterlimit="4" id="imagebot_64" cx="649.88568" cy="497.03769" rx="42.08273" ry="1.99663"/>
  <ellipse transform="translate(-57.8935 -48.5901) matrix(1 0 0 1 0 719.291)" label="Layer 1" fill="#888a85" stroke-width="0.5" stroke-miterlimit="4" ry="1.99663" rx="42.08273" cy="497.03769" cx="391.24588" id="imagebot_63"/>
  <path transform="translate(-57.8935 -48.5901) matrix(1 0 0 1 0 719.291)" label="Layer 1" fill="#edd400" stroke-width="0.5" stroke-miterlimit="4" id="imagebot_62" d="M208.93355,425.05384L396.59128,366.12527L475.95942,321.42666L615.01859,317.12116L706.08646,361.83956L761.15747,370.05384L772.26341,392.87403L775.46648,444.11868L757.94318,466.60113L226.43354,466.60113L208.93355,425.05384z"/>
  <circle transform="translate(-57.8935 -48.5901) matrix(1 0 0 1 0 719.291)" label="Layer 1" fill="#2e3436" stroke-width="0.5" stroke-miterlimit="4" r="52.21945" cy="445.09903" cx="389.8335" id="imagebot_61"/>
  <circle transform="translate(-57.8935 -48.5901) matrix(1 0 0 1 0 719.291)" label="Layer 1" fill="#2e3436" stroke-width="0.5" stroke-miterlimit="4" id="imagebot_60" cx="650.31635" cy="445.09903" r="52.21945"/>
  <path transform="translate(-57.8935 -48.5901) matrix(1 0 0 1 0 719.291)" label="Layer 1" fill="#eeeeec" fill-rule="evenodd" stroke-width="1px" id="imagebot_59" d="M256.11574,414.76277L216.82201,425.80272L218.25058,431.99657L257.90145,429.85372L256.11574,414.76277z"/>
  <path transform="translate(-57.8935 -48.5901) matrix(1 0 0 1 0 719.291)" label="Layer 1" fill="#cc0000" fill-rule="evenodd" stroke-width="0.48512px" d="M756.59289,373.39248L763.32909,394.82101L755.24086,395.17816L740.598,373.39248L756.59289,373.39248z" id="imagebot_58"/>
  <path transform="translate(-57.8935 -48.5901) matrix(1 0 0 1 0 719.291)" label="Layer 1" fill="#ffffff" fill-rule="evenodd" stroke-width="1px" id="imagebot_57" d="M615.75825,323.9714L614.74014,356.25831L666.23212,355.54403L615.75825,323.9714z"/>
  <path transform="translate(-57.8935 -48.5901) matrix(1 0 0 1 0 719.291)" label="Layer 1" fill="#ffffff" fill-rule="evenodd" stroke-width="1px" id="imagebot_56" d="M478.13459,327.27323L407.9131,372.68688L607.49386,355.54403L608.50113,324.26258L478.13459,327.27323z"/>
  <ellipse transform="translate(-57.8935 -48.5901) matrix(1 0 0 1 0 719.291)" label="Layer 1" fill="#888a85" stroke-width="0.5" stroke-miterlimit="4" ry="1.99663" rx="42.08273" cy="497.03769" cx="1329.3007" id="imagebot_55"/>
  <ellipse transform="translate(-57.8935 -48.5901) matrix(1 0 0 1 0 719.291)" label="Layer 1" fill="#888a85" stroke-width="0.5" stroke-miterlimit="4" id="imagebot_54" cx="1070.6609" cy="497.03769" rx="42.08273" ry="1.99663"/>
  <path transform="translate(-57.8935 -48.5901) matrix(1 0 0 1 0 719.291)" label="Layer 1" fill="#729fcf" stroke-width="0.5" stroke-miterlimit="4" d="M925.49134,382.03517L1076.0062,366.12527L1128.5886,295.42521L1269.0764,299.62116L1316.2157,366.12527L1425.9821,366.12527L1449.5587,376.47293L1455.355,454.11979L1442.6496,466.60113L925.49134,466.60113L916.65251,457.12973L916.65251,390.96475L925.49134,382.03517z" id="imagebot_53"/>
  <circle transform="translate(-57.8935 -48.5901) matrix(1 0 0 1 0 719.291)" label="Layer 1" fill="#2e3436" stroke-width="0.5" stroke-miterlimit="4" id="imagebot_52" cx="1069.2484" cy="445.09903" r="52.21945"/>
  <circle transform="translate(-57.8935 -48.5901) matrix(1 0 0 1 0 719.291)" label="Layer 1" fill="#2e3436" stroke-width="0.5" stroke-miterlimit="4" r="52.21945" cy="445.09903" cx="1329.7313" id="imagebot_51"/>
  <path transform="translate(-57.8935 -48.5901) matrix(1 0 0 1 0 719.291)" label="Layer 1" fill="#ffffff" fill-rule="evenodd" stroke-width="1px" d="M959.5354,384.93301L926.43257,388.22477L921.12927,399.8568L962.8184,397.83649L959.5354,384.93301z" id="imagebot_50"/>
  <path transform="translate(-57.8935 -48.5901) matrix(1 0 0 1 0 719.291)" label="Layer 1" fill="#cc0000" fill-rule="evenodd" stroke-width="0.48512px" id="imagebot_49" d="M1424.578,370.63994L1445.0812,382.84712L1409.0882,383.60473L1410.0984,371.39756L1424.578,370.63994z"/>
  <path transform="translate(-57.8935 -48.5901) matrix(1 0 0 1 0 719.291)" label="Layer 1" fill="#ffffff" fill-rule="evenodd" stroke-width="1px" d="M1132.6732,310.55662L1088.7979,365.90117L1125.704,365.90117L1132.6732,310.55662z" id="imagebot_48"/>
  <path transform="translate(-57.8935 -48.5901) matrix(1 0 0 1 0 719.291)" label="Layer 1" fill="#ffffff" fill-rule="evenodd" stroke-width="1px" d="M1150.0495,301.92044C1150.0495,301.92044 1135.049,366.33558 1137.6554,365.90117C1140.2619,365.46676 1299.0516,365.90117 1299.0516,365.90117L1264.7018,306.40544L1150.0495,301.92044z" id="imagebot_47"/>
  <ellipse transform="translate(-57.8935 -48.5901) matrix(1 0 0 1 0 719.291)" label="Layer 1" fill="#888a85" stroke-width="0.5" stroke-miterlimit="4" ry="1.99663" rx="42.08273" cy="827.18817" cx="649.88568" id="imagebot_46"/>
  <ellipse transform="translate(-57.8935 -48.5901) matrix(1 0 0 1 0 719.291)" label="Layer 1" fill="#888a85" stroke-width="0.5" stroke-miterlimit="4" id="imagebot_45" cx="391.24588" cy="827.18817" rx="42.08273" ry="1.99663"/>
  <path transform="translate(-57.8935 -48.5901) matrix(1 0 0 1 0 719.291)" label="Layer 1" fill="#75507b" stroke-width="0.5" stroke-miterlimit="4" d="M263.5764,744.84719L395.11195,700.48969L467.09648,656.20077L592.72239,630.95511L667.5676,687.62638L723.33367,680.11332L770.48061,748.93324L732.42504,796.75161L246.0764,796.75161L263.5764,744.84719z" id="imagebot_44"/>
  <circle transform="translate(-57.8935 -48.5901) matrix(1 0 0 1 0 719.291)" label="Layer 1" fill="#2e3436" stroke-width="0.5" stroke-miterlimit="4" id="imagebot_43" cx="389.8335" cy="775.24957" r="52.21945"/>
  <circle transform="translate(-57.8935 -48.5901) matrix(1 0 0 1 0 719.291)" label="Layer 1" fill="#2e3436" stroke-width="0.5" stroke-miterlimit="4" r="52.21945" cy="775.24957" cx="650.31635" id="imagebot_42"/>
  <path transform="translate(-57.8935 -48.5901) matrix(1 0 0 1 0 719.291)" label="Layer 1" fill="#eeeeec" fill-rule="evenodd" stroke-width="1px" d="M310.58528,733.51006L269.67915,746.66748L263.96486,763.57562L307.54431,756.78991L310.58528,733.51006z" id="imagebot_41"/>
  <path transform="translate(-57.8935 -48.5901) matrix(1 0 0 1 0 719.291)" label="Layer 1" fill="#ef2929" fill-rule="evenodd" stroke-width="0.48512px" id="imagebot_40" d="M720.16178,684.628L734.6041,706.68415L715.02603,705.92653L705.93465,687.15338L720.16178,684.628z"/>
  <path transform="translate(-57.8935 -48.5901) matrix(1 0 0 1 0 719.291)" label="Layer 1" fill="#ffffff" fill-rule="evenodd" stroke-width="1px" d="M468.65199,660.96797L407.25753,700.87833L577.21032,691.50596L585.28685,636.55592L468.65199,660.96797z" id="imagebot_39"/>
  <ellipse transform="translate(-57.8935 -48.5901) matrix(1 0 0 1 0 719.291)" label="Layer 1" fill="#888a85" stroke-width="0.5" stroke-miterlimit="4" id="imagebot_38" cx="1329.3007" cy="827.18817" rx="42.08273" ry="1.99663"/>
  <ellipse transform="translate(-57.8935 -48.5901) matrix(1 0 0 1 0 719.291)" label="Layer 1" fill="#888a85" stroke-width="0.5" stroke-miterlimit="4" ry="1.99663" rx="42.08273" cy="827.18817" cx="1070.6609" id="imagebot_37"/>
  <path transform="translate(38.147 49.5911) matrix(1 0 0 1 -99.8551 594.407)" label="Layer 1" fill="#e9b96e" stroke-width="0.5" stroke-miterlimit="4" id="imagebot_36" d="M938.70562,709.86731L1076.0062,701.8316L1122.5172,638.00571L1306.0083,638.34307L1352.0761,701.8316L1451.236,701.8316L1456.7273,713.96147L1456.2867,796.75161L925.49134,796.75161L925.49134,720.21925L938.70562,709.86731z"/>
  <circle transform="translate(-57.8935 -48.5901) matrix(1 0 0 1 0 719.291)" label="Layer 1" fill="#2e3436" stroke-width="0.5" stroke-miterlimit="4" r="52.21945" cy="775.24957" cx="1069.2484" id="imagebot_35"/>
  <circle transform="translate(-57.8935 -48.5901) matrix(1 0 0 1 0 719.291)" label="Layer 1" fill="#2e3436" stroke-width="0.5" stroke-miterlimit="4" id="imagebot_34" cx="1329.7313" cy="775.24957" r="52.21945"/>
  <path transform="translate(-57.8935 -48.5901) matrix(1 0 0 1 0 719.291)" label="Layer 1" fill="#ffffff" fill-rule="evenodd" stroke-width="1px" id="imagebot_33" d="M969.63783,710.62754L942.8441,712.38177L930.79053,727.14706L966.24497,726.78991L969.63783,710.62754z"/>
  <path transform="translate(-57.8935 -48.5901) matrix(1 0 0 1 0 719.291)" label="Layer 1" fill="#cc0000" fill-rule="evenodd" stroke-width="0.48512px" d="M1449.0111,704.52511L1453.6044,715.50721L1433.0162,715.50721L1433.0162,704.52511L1449.0111,704.52511z" id="imagebot_32"/>
  <path transform="translate(-57.8935 -48.5901) matrix(1 0 0 1 0 719.291)" label="Layer 1" fill="#ffffff" fill-rule="evenodd" stroke-width="1px" id="imagebot_31" d="M1125.8875,644.12188L1082.7265,702.83736L1119.9329,702.83736L1125.8875,644.12188z"/>
  <path transform="translate(-57.8935 -48.5901) matrix(1 0 0 1 0 719.291)" label="Layer 1" fill="#ffffff" fill-rule="evenodd" stroke-width="1px" id="imagebot_30" d="M1215.7638,643.49514L1217.6851,702.83736L1325.8373,702.83736L1300.4161,643.69878L1215.7638,643.49514z"/>
  <g label="Layer 1" font-style="normal" font-weight="normal" font-size="251.54292px" font-family="sans-serif" fill="#000000" stroke-width="1px" transform="translate(-57.8935 -48.5901) matrix(1 0 0 1 7.14286 730.72)" id="imagebot_25">
   <path id="imagebot_29" d="M692.25081,-658.41381C692.25081,-649.69333 692.25081,-640.97284 692.25081,-632.25236C664.83797,-659.99717 611.3799,-666.14719 585.2138,-633.72049C566.40238,-606.50709 566.65345,-568.83993 578.42779,-538.85742C595.0667,-500.85977 648.26339,-497.70074 679.29291,-519.00892C692.6747,-533.83583 693.43174,-525.99178 692.25081,-511.48735C693.46258,-492.46309 663.35356,-491.35355 649.6924,-486.70628C610.77727,-479.7781 565.85306,-497.81483 551.94921,-536.92918C536.36374,-579.82143 542.6698,-638.41006 585.01805,-663.77966C617.56007,-682.12983 661.5261,-679.39179 692.25081,-658.41381z"/>
   <path id="imagebot_28" d="M792.10647,-648.09662C780.88857,-617.67728 769.67068,-587.25795 758.45278,-556.83861C780.92952,-556.83861 803.40625,-556.83861 825.88299,-556.83861C814.62415,-587.25795 803.36531,-617.67728 792.10647,-648.09662zM778.10457,-672.53853C787.48011,-672.53853 796.85566,-672.53853 806.2312,-672.53853C829.52676,-611.41327 852.82232,-550.28802 876.11788,-489.16276C867.52022,-489.16276 858.92256,-489.16276 850.3249,-489.16276C844.75689,-504.84325 839.18889,-520.52374 833.62088,-536.20423C806.06743,-536.20423 778.51398,-536.20423 750.96053,-536.20423C745.39252,-520.52374 739.82452,-504.84325 734.25651,-489.16276C725.53603,-489.16276 716.81555,-489.16276 708.09507,-489.16276C731.43157,-550.28802 754.76807,-611.41327 778.10457,-672.53853z"/>
   <path id="imagebot_27" d="M989.72979,-575.13934C1014.5343,-562.92377 1021.6241,-533.71719 1034.5079,-511.2678C1038.2101,-503.89945 1041.9124,-496.53111 1045.6146,-489.16276C1036.7303,-489.16276 1027.8461,-489.16276 1018.9618,-489.16276C1006.7625,-511.75612 997.8228,-536.4082 982.14543,-556.86164C967.62229,-571.28175 945.92808,-565.42416 927.58101,-566.66451C927.58101,-540.83059 927.58101,-514.99668 927.58101,-489.16276C919.31088,-489.16276 911.04075,-489.16276 902.77062,-489.16276C902.77062,-550.28802 902.77062,-611.41327 902.77062,-672.53853C931.53689,-671.40405 960.95391,-675.6151 989.09936,-668.38028C1029.4897,-658.03451 1033.377,-589.90521 993.45289,-576.35414L989.72979,-575.13934L989.72979,-575.13934zM927.58101,-652.1498C927.58101,-630.45095 927.58101,-608.75209 927.58101,-587.05324C947.7867,-588.61059 971.98291,-581.66755 987.95845,-597.49134C1001.9413,-614.65298 995.52537,-647.83589 970.98383,-650.99257C956.6597,-653.09002 942.02582,-651.78461 927.58101,-652.1498z"/>
   <path id="imagebot_26" d="M1187.5988,-666.52017C1185.8342,-659.93514 1191.4812,-641.71588 1184.0926,-643.95899C1159.3213,-655.11696 1126.6508,-663.18508 1102.8677,-645.78216C1081.5893,-625.81478 1103.5321,-595.2138 1129.5032,-597.12478C1154.5855,-592.43132 1185.2167,-586.9699 1195.3366,-559.84779C1205.586,-533.56274 1193.6907,-498.98272 1165.0146,-490.97441C1134.0566,-480.79894 1100.2344,-486.14502 1070.3021,-497.26912C1070.3021,-505.7849 1070.3021,-514.30067 1070.3021,-522.81645C1097.1047,-507.82526 1132.8474,-497.48072 1161.1917,-514.09597C1181.1434,-527.7405 1174.0484,-562.70171 1149.9245,-567.08096C1123.771,-575.27485 1089.7194,-573.88717 1074.411,-600.87667C1061.0966,-627.33114 1074.9197,-663.4555 1104.1521,-671.42448C1131.3276,-680.02149 1161.0587,-675.08375 1187.5988,-666.52017z"/>
  </g>
  <path transform="translate(-57.8935 -48.5901) matrix(1 0 0 1 0 719.291)" label="Layer 1" fill="#3465a4" fill-rule="evenodd" stroke-width="1px" id="imagebot_24" d="M1152.1239,267.03085L1141.9944,295.84055L1185.1017,297.35206L1185.8989,267.74514L1152.1239,267.03085z"/>
  <path transform="translate(-57.8935 -48.5901) matrix(1 0 0 1 0 719.291)" label="Layer 1" fill="#ef2929" fill-rule="evenodd" stroke-width="1px" d="M1210.2697,268.51807L1218.6594,298.28299L1184.5303,297.26912L1183.1018,267.53593L1210.2697,268.51807z" id="imagebot_23"/>
  <path transform="translate(-57.8935 -48.5901) matrix(1 0 0 1 0 719.291)" label="Layer 1" fill="#ffffff" fill-rule="evenodd" stroke-width="1px" d="M1311.478,-50.83056L1316.9708,24.58309L1427.9801,23.51166L1398.9875,-42.0555L1311.478,-50.83056z" id="imagebot_22"/>
  <path transform="translate(-57.8935 -48.5901) matrix(1 0 0 1 0 719.291)" label="Layer 1" fill="#ffffff" fill-rule="evenodd" stroke-width="1px" id="imagebot_21" d="M1241.1209,-45.47342L1247.6851,24.58309L1301.1944,23.51166L1299.3447,-50.62692L1241.1209,-45.47342z"/>
  <circle transform="translate(-57.8935 -48.5901) matrix(1 0 0 1 0 719.291)" label="Layer 1" fill="#888a85" stroke="#888a85" stroke-width="0.44637" stroke-miterlimit="4" id="imagebot_20" cx="389.8335" cy="-197.82564" r="26.53198"/>
  <circle transform="translate(-57.8935 -48.5901) matrix(1 0 0 1 0 719.291)" label="Layer 1" fill="#888a85" stroke="#888a85" stroke-width="0.44637" stroke-miterlimit="4" r="26.53198" cy="-197.82564" cx="650.31635" id="imagebot_19"/>
  <circle transform="translate(-57.8935 -48.5901) matrix(1 0 0 1 0 719.291)" label="Layer 1" fill="#888a85" stroke="#888a85" stroke-width="0.44637" stroke-miterlimit="4" r="26.53198" cy="-197.82564" cx="1071.6864" id="imagebot_18"/>
  <circle transform="translate(-57.8935 -48.5901) matrix(1 0 0 1 0 719.291)" label="Layer 1" fill="#888a85" stroke="#888a85" stroke-width="0.44637" stroke-miterlimit="4" id="imagebot_17" cx="1332.1693" cy="-197.82564" r="26.53198"/>
  <circle transform="translate(-57.8935 -48.5901) matrix(1 0 0 1 0 719.291)" label="Layer 1" fill="#888a85" stroke="#888a85" stroke-width="0.44637" stroke-miterlimit="4" r="26.53198" cy="118.35209" cx="389.8335" id="imagebot_16"/>
  <circle transform="translate(-57.8935 -48.5901) matrix(1 0 0 1 0 719.291)" label="Layer 1" fill="#888a85" stroke="#888a85" stroke-width="0.44637" stroke-miterlimit="4" id="imagebot_15" cx="650.31635" cy="118.35209" r="26.53198"/>
  <circle transform="translate(-57.8935 -48.5901) matrix(1 0 0 1 0 719.291)" label="Layer 1" fill="#888a85" stroke="#888a85" stroke-width="0.44637" stroke-miterlimit="4" id="imagebot_14" cx="1071.6864" cy="118.35209" r="26.53198"/>
  <circle transform="translate(-57.8935 -48.5901) matrix(1 0 0 1 0 719.291)" label="Layer 1" fill="#888a85" stroke="#888a85" stroke-width="0.44637" stroke-miterlimit="4" r="26.53198" cy="118.35209" cx="1332.1693" id="imagebot_13"/>
  <circle transform="translate(-57.8935 -48.5901) matrix(1 0 0 1 0 719.291)" label="Layer 1" fill="#888a85" stroke="#888a85" stroke-width="0.44637" stroke-miterlimit="4" id="imagebot_12" cx="389.8335" cy="445.64148" r="26.53198"/>
  <circle transform="translate(-57.8935 -48.5901) matrix(1 0 0 1 0 719.291)" label="Layer 1" fill="#888a85" stroke="#888a85" stroke-width="0.44637" stroke-miterlimit="4" r="26.53198" cy="445.64148" cx="650.31635" id="imagebot_11"/>
  <circle transform="translate(-57.8935 -48.5901) matrix(1 0 0 1 0 719.291)" label="Layer 1" fill="#888a85" stroke="#888a85" stroke-width="0.44637" stroke-miterlimit="4" r="26.53198" cy="445.64148" cx="1071.6864" id="imagebot_10"/>
  <circle transform="translate(-57.8935 -48.5901) matrix(1 0 0 1 0 719.291)" label="Layer 1" fill="#888a85" stroke="#888a85" stroke-width="0.44637" stroke-miterlimit="4" id="imagebot_9" cx="1332.1693" cy="445.64148" r="26.53198"/>
  <circle transform="translate(-57.8935 -48.5901) matrix(1 0 0 1 0 719.291)" label="Layer 1" fill="#888a85" stroke="#888a85" stroke-width="0.44637" stroke-miterlimit="4" r="26.53198" cy="774.95117" cx="389.8335" id="imagebot_8"/>
  <circle transform="translate(-57.8935 -48.5901) matrix(1 0 0 1 0 719.291)" label="Layer 1" fill="#888a85" stroke="#888a85" stroke-width="0.44637" stroke-miterlimit="4" id="imagebot_7" cx="650.31635" cy="774.95117" r="26.53198"/>
  <circle transform="translate(-57.8935 -48.5901) matrix(1 0 0 1 0 719.291)" label="Layer 1" fill="#888a85" stroke="#888a85" stroke-width="0.44637" stroke-miterlimit="4" id="imagebot_6" cx="1071.6864" cy="774.95117" r="26.53198"/>
  <circle transform="translate(-57.8935 -48.5901) matrix(1 0 0 1 0 719.291)" label="Layer 1" fill="#888a85" stroke="#888a85" stroke-width="0.44637" stroke-miterlimit="4" r="26.53198" cy="774.95117" cx="1332.1693" id="imagebot_5"/>
  <path transform="translate(-57.8935 -48.5901) matrix(1 0 0 1 0 719.291)" label="Layer 1" fill="#ffffff" fill-rule="evenodd" stroke-width="1px" d="M1130.4066,643.49514L1129.828,702.83736L1206.5516,702.83736L1205.7732,642.62735L1130.4066,643.49514z" id="imagebot_4"/>
  <path transform="translate(-57.8935 -48.5901) matrix(1 0 0 1 0 719.291)" label="Layer 1" fill="#ffffff" fill-rule="evenodd" stroke-width="1px" id="imagebot_3" d="M591.14407,635.15127L583.63431,691.0009L647.3094,690.49582L591.14407,635.15127z"/>
  <title>Layer 1</title>
 </g>
</svg>