<?xml version="1.0" encoding="UTF-8" standalone="no"?>
<!-- Created with Inkscape (http://www.inkscape.org/) -->

<svg
   xmlns:dc="http://purl.org/dc/elements/1.1/"
   xmlns:cc="http://creativecommons.org/ns#"
   xmlns:rdf="http://www.w3.org/1999/02/22-rdf-syntax-ns#"
   xmlns:svg="http://www.w3.org/2000/svg"
   xmlns="http://www.w3.org/2000/svg"
   xmlns:sodipodi="http://sodipodi.sourceforge.net/DTD/sodipodi-0.dtd"
   xmlns:inkscape="http://www.inkscape.org/namespaces/inkscape"
   width="135.84395mm"
   height="156.48213mm"
   viewBox="0 0 135.84395 156.48213"
   version="1.1"
   id="svg8"
   inkscape:version="0.92.0 r15299"
   sodipodi:docname="char4.svg">
  <defs
     id="defs2" />
  <sodipodi:namedview
     id="base"
     pagecolor="#ffffff"
     bordercolor="#666666"
     borderopacity="1.0"
     inkscape:pageopacity="0.0"
     inkscape:pageshadow="2"
     inkscape:zoom="0.24748737"
     inkscape:cx="-418.80729"
     inkscape:cy="112.22604"
     inkscape:document-units="mm"
     inkscape:current-layer="layer1"
     showgrid="false"
     fit-margin-top="0"
     fit-margin-left="0"
     fit-margin-right="0"
     fit-margin-bottom="0"
     inkscape:window-width="1366"
     inkscape:window-height="715"
     inkscape:window-x="-8"
     inkscape:window-y="-8"
     inkscape:window-maximized="1" />
  <metadata
     id="metadata5">
    <rdf:RDF>
      <cc:Work
         rdf:about="">
        <dc:format>image/svg+xml</dc:format>
        <dc:type
           rdf:resource="http://purl.org/dc/dcmitype/StillImage" />
        <dc:title></dc:title>
      </cc:Work>
    </rdf:RDF>
  </metadata>
  <g
     inkscape:label="Layer 1"
     inkscape:groupmode="layer"
     id="layer1"
     transform="translate(-14.571382,-66.345078)">
    <rect
       style="opacity:1;fill:#5f8dd3;fill-opacity:0.96132597;stroke:none;stroke-width:0.1190625;stroke-linecap:round;stroke-linejoin:round;stroke-miterlimit:4;stroke-dasharray:none;stroke-dashoffset:100;stroke-opacity:1;paint-order:stroke markers fill"
       id="rect4485"
       width="92.98214"
       height="131.53571"
       x="46.087433"
       y="66.345078"
       rx="11.678275"
       ry="65.767853" />
    <path
       style="opacity:1;fill:#87aade;fill-opacity:0.96132597;stroke:none;stroke-width:0.44999999;stroke-linecap:round;stroke-linejoin:round;stroke-miterlimit:4;stroke-dasharray:none;stroke-dashoffset:100;stroke-opacity:1;paint-order:stroke markers fill"
       d="m 218.32617,250.75391 c -24.45265,0 -44.13672,110.86175 -44.13672,248.57031 0,137.70856 19.68407,248.57226 44.13672,248.57226 h 51.42969 c -24.45265,0 -44.13867,-110.8637 -44.13867,-248.57226 0,-137.70856 19.68602,-248.57031 44.13867,-248.57031 z"
       transform="scale(0.26458333)"
       id="rect4532"
       inkscape:connector-curvature="0" />
    <path
       style="opacity:1;fill:#3781c8;fill-opacity:0.96132597;stroke:none;stroke-width:0.44999999;stroke-linecap:round;stroke-linejoin:round;stroke-miterlimit:4;stroke-dasharray:none;stroke-dashoffset:100;stroke-opacity:1;paint-order:stroke markers fill"
       d="m 395.76367,250.75391 c 24.45265,0 44.13867,110.86175 44.13867,248.57031 0,137.70856 -19.68602,248.57226 -44.13867,248.57226 h 85.71485 c 24.45265,0 44.13867,-110.8637 44.13867,-248.57226 0,-137.70856 -19.68602,-248.57031 -44.13867,-248.57031 z"
       transform="scale(0.26458333)"
       id="rect4544"
       inkscape:connector-curvature="0" />
    <path
       inkscape:connector-curvature="0"
       id="path4549"
       d="m 85.926258,100.45241 a 17.417321,18.327631 0 0 0 18.099262,16.61322 17.417321,18.327631 0 0 0 16.57895,-16.61322 z"
       style="opacity:1;fill:#162d50;fill-opacity:0.96132597;stroke:none;stroke-width:0.1190625;stroke-linecap:round;stroke-linejoin:round;stroke-miterlimit:4;stroke-dasharray:none;stroke-dashoffset:100;stroke-opacity:1;paint-order:stroke markers fill" />
    <path
       style="opacity:1;fill:#f9f9f9;fill-opacity:0.96132597;stroke:none;stroke-width:0.1190625;stroke-linecap:round;stroke-linejoin:round;stroke-miterlimit:4;stroke-dasharray:none;stroke-dashoffset:100;stroke-opacity:1;paint-order:stroke markers fill"
       d="m 89.315596,102.07781 a 14.012713,14.745081 0 0 0 14.561344,13.3658 14.012713,14.745081 0 0 0 13.33822,-13.3658 z"
       id="path4551"
       inkscape:connector-curvature="0" />
    <path
       d="m 108.54428,107.41409 a 5.5749803,4.2543502 0 0 1 -5.33244,4.25033 5.5749803,4.2543502 0 0 1 -5.796417,-3.8805 5.5749803,4.2543502 0 0 1 4.828077,-4.58797 5.5749803,4.2543502 0 0 1 6.21652,3.48128"
       sodipodi:open="true"
       sodipodi:end="6.1091062"
       sodipodi:start="0"
       sodipodi:ry="4.2543502"
       sodipodi:rx="5.5749803"
       sodipodi:cy="107.41409"
       sodipodi:cx="102.9693"
       sodipodi:type="arc"
       id="path4553"
       style="opacity:1;fill:#000000;fill-opacity:0.96132597;stroke:none;stroke-width:0.1190625;stroke-linecap:round;stroke-linejoin:round;stroke-miterlimit:4;stroke-dasharray:none;stroke-dashoffset:100;stroke-opacity:1;paint-order:stroke markers fill" />
    <path
       inkscape:transform-center-y="10.05574"
       inkscape:transform-center-x="-1.5928525"
       transform="matrix(0.72459509,0.68917484,-0.71001809,0.70418344,0,0)"
       d="m 152.26734,5.8948641 a 1.0797808,3.0411613 0 0 1 -1.0328,3.0382818 1.0797808,3.0411613 0 0 1 -1.12267,-2.7739146 1.0797808,3.0411613 0 0 1 0.93512,-3.2796459 1.0797808,3.0411613 0 0 1 1.20403,2.4885458"
       sodipodi:open="true"
       sodipodi:end="6.1091062"
       sodipodi:start="0"
       sodipodi:ry="3.0411613"
       sodipodi:rx="1.0797808"
       sodipodi:cy="5.8948641"
       sodipodi:cx="151.18756"
       sodipodi:type="arc"
       id="path4555"
       style="opacity:1;fill:#ffffff;fill-opacity:0.96132597;stroke:none;stroke-width:0.11908783;stroke-linecap:round;stroke-linejoin:round;stroke-miterlimit:4;stroke-dasharray:none;stroke-dashoffset:100;stroke-opacity:1;paint-order:stroke markers fill" />
    <path
       style="opacity:1;fill:#ffffff;fill-opacity:0.96132597;stroke:none;stroke-width:0.11908783;stroke-linecap:round;stroke-linejoin:round;stroke-miterlimit:4;stroke-dasharray:none;stroke-dashoffset:100;stroke-opacity:1;paint-order:stroke markers fill"
       id="path4557"
       sodipodi:type="arc"
       sodipodi:cx="145.53816"
       sodipodi:cy="7.4980593"
       sodipodi:rx="0.63758361"
       sodipodi:ry="1.7957299"
       sodipodi:start="0"
       sodipodi:end="6.1091062"
       sodipodi:open="true"
       d="m 146.17575,7.4980593 a 0.63758361,1.7957299 0 0 1 -0.60985,1.7940296 0.63758361,1.7957299 0 0 1 -0.66291,-1.6379274 0.63758361,1.7957299 0 0 1 0.55217,-1.9365491 0.63758361,1.7957299 0 0 1 0.71095,1.4694242"
       transform="matrix(0.72459509,0.68917484,-0.71001809,0.70418344,0,0)"
       inkscape:transform-center-x="-0.94054365"
       inkscape:transform-center-y="5.9376667" />
    <path
       style="opacity:1;fill:#162d50;fill-opacity:0.96132597;stroke:none;stroke-width:0.1190625;stroke-linecap:round;stroke-linejoin:round;stroke-miterlimit:4;stroke-dasharray:none;stroke-dashoffset:100;stroke-opacity:1;paint-order:stroke markers fill"
       d="m 46.970597,100.45241 a 17.417321,18.327631 0 0 0 18.09923,16.61322 17.417321,18.327631 0 0 0 16.578948,-16.61322 z"
       id="path4559"
       inkscape:connector-curvature="0" />
    <path
       inkscape:connector-curvature="0"
       id="path4561"
       d="m 50.359907,102.07781 a 14.012713,14.745081 0 0 0 14.56134,13.3658 14.012713,14.745081 0 0 0 13.338215,-13.3658 z"
       style="opacity:1;fill:#f9f9f9;fill-opacity:0.96132597;stroke:none;stroke-width:0.1190625;stroke-linecap:round;stroke-linejoin:round;stroke-miterlimit:4;stroke-dasharray:none;stroke-dashoffset:100;stroke-opacity:1;paint-order:stroke markers fill" />
    <path
       style="opacity:1;fill:#000000;fill-opacity:0.96132597;stroke:none;stroke-width:0.1190625;stroke-linecap:round;stroke-linejoin:round;stroke-miterlimit:4;stroke-dasharray:none;stroke-dashoffset:100;stroke-opacity:1;paint-order:stroke markers fill"
       id="path4563"
       sodipodi:type="arc"
       sodipodi:cx="64.013611"
       sodipodi:cy="107.41409"
       sodipodi:rx="5.5749803"
       sodipodi:ry="4.2543502"
       sodipodi:start="0"
       sodipodi:end="6.1091062"
       sodipodi:open="true"
       d="m 69.588591,107.41409 a 5.5749803,4.2543502 0 0 1 -5.332435,4.25033 5.5749803,4.2543502 0 0 1 -5.796421,-3.8805 5.5749803,4.2543502 0 0 1 4.828076,-4.58797 5.5749803,4.2543502 0 0 1 6.216522,3.48128" />
    <path
       style="opacity:1;fill:#ffffff;fill-opacity:0.96132597;stroke:none;stroke-width:0.11908783;stroke-linecap:round;stroke-linejoin:round;stroke-miterlimit:4;stroke-dasharray:none;stroke-dashoffset:100;stroke-opacity:1;paint-order:stroke markers fill"
       id="path4565"
       sodipodi:type="arc"
       sodipodi:cx="123.74383"
       sodipodi:cy="32.753613"
       sodipodi:rx="1.0797808"
       sodipodi:ry="3.0411613"
       sodipodi:start="0"
       sodipodi:end="6.1091062"
       sodipodi:open="true"
       d="m 124.82361,32.753613 a 1.0797808,3.0411613 0 0 1 -1.03281,3.038281 1.0797808,3.0411613 0 0 1 -1.12267,-2.773914 1.0797808,3.0411613 0 0 1 0.93512,-3.279646 1.0797808,3.0411613 0 0 1 1.20404,2.488546"
       transform="matrix(0.72459509,0.68917484,-0.71001809,0.70418344,0,0)"
       inkscape:transform-center-x="-1.5928383"
       inkscape:transform-center-y="10.055747" />
    <path
       inkscape:transform-center-y="5.937668"
       inkscape:transform-center-x="-0.94054594"
       transform="matrix(0.72459509,0.68917484,-0.71001809,0.70418344,0,0)"
       d="m 118.73211,34.356792 a 0.63758361,1.7957299 0 0 1 -0.60984,1.79403 0.63758361,1.7957299 0 0 1 -0.66291,-1.637927 0.63758361,1.7957299 0 0 1 0.55216,-1.936549 0.63758361,1.7957299 0 0 1 0.71096,1.469424"
       sodipodi:open="true"
       sodipodi:end="6.1091062"
       sodipodi:start="0"
       sodipodi:ry="1.7957299"
       sodipodi:rx="0.63758361"
       sodipodi:cy="34.356792"
       sodipodi:cx="118.09453"
       sodipodi:type="arc"
       id="path4567"
       style="opacity:1;fill:#ffffff;fill-opacity:0.96132597;stroke:none;stroke-width:0.11908783;stroke-linecap:round;stroke-linejoin:round;stroke-miterlimit:4;stroke-dasharray:none;stroke-dashoffset:100;stroke-opacity:1;paint-order:stroke markers fill" />
    <path
       inkscape:connector-curvature="0"
       id="path4590"
       d="m 46.357504,164.43088 a 32.793639,59.270929 0 0 0 -3.267541,0.47695 32.793639,59.270929 0 0 0 -28.518581,57.91938 h 65.540695 l -0.454537,-9.4191 A 32.793639,59.270929 0 0 0 46.357504,164.43088 Z"
       style="opacity:1;fill:#00112b;fill-opacity:1;stroke:none;stroke-width:0.11906253;stroke-linecap:round;stroke-linejoin:round;stroke-miterlimit:4;stroke-dasharray:none;stroke-dashoffset:100;stroke-opacity:1;paint-order:stroke markers fill" />
    <path
       style="opacity:1;fill:#2c89a0;fill-opacity:1;stroke:none;stroke-width:0.11906253;stroke-linecap:round;stroke-linejoin:round;stroke-miterlimit:4;stroke-dasharray:none;stroke-dashoffset:100;stroke-opacity:1;paint-order:stroke markers fill"
       d="m 45.561598,181.86427 a 14.70847,26.583956 0 0 0 -1.465544,0.21391 14.70847,26.583956 0 0 0 -12.791042,25.97777 h 29.39605 l -0.203871,-4.22462 A 14.70847,26.583956 0 0 0 45.561598,181.86427 Z"
       id="path4592"
       inkscape:connector-curvature="0" />
    <path
       style="opacity:1;fill:#00112b;fill-opacity:1;stroke:none;stroke-width:0.11906253;stroke-linecap:round;stroke-linejoin:round;stroke-miterlimit:4;stroke-dasharray:none;stroke-dashoffset:100;stroke-opacity:1;paint-order:stroke markers fill"
       d="m 116.66076,164.43088 a 32.793639,59.270929 0 0 0 -3.26754,0.47695 32.793639,59.270929 0 0 0 -28.51864,57.91938 h 65.54075 l -0.45453,-9.4191 a 32.793639,59.270929 0 0 0 -33.30004,-48.97723 z"
       id="path4594"
       inkscape:connector-curvature="0" />
    <path
       inkscape:connector-curvature="0"
       id="path4596"
       d="m 117.45236,181.86427 a 14.70847,26.583956 0 0 0 -1.46554,0.21391 14.70847,26.583956 0 0 0 -12.79109,25.97777 h 29.3961 l -0.20387,-4.22462 a 14.70847,26.583956 0 0 0 -14.9356,-21.96706 z"
       style="opacity:1;fill:#2c89a0;fill-opacity:1;stroke:none;stroke-width:0.11906253;stroke-linecap:round;stroke-linejoin:round;stroke-miterlimit:4;stroke-dasharray:none;stroke-dashoffset:100;stroke-opacity:1;paint-order:stroke markers fill" />
    <rect
       style="opacity:1;fill:#1a1a1a;fill-opacity:0.96132597;stroke:none;stroke-width:0.1190625;stroke-linecap:round;stroke-linejoin:round;stroke-miterlimit:4;stroke-dasharray:none;stroke-dashoffset:100;stroke-opacity:1;paint-order:stroke markers fill"
       id="rect4616"
       width="56.940521"
       height="18.621355"
       x="53.765846"
       y="132.35367"
       rx="5.630651"
       ry="5.630651" />
    <rect
       style="opacity:1;fill:#ffffff;fill-opacity:0.96132597;stroke:none;stroke-width:0.1190625;stroke-linecap:round;stroke-linejoin:round;stroke-miterlimit:4;stroke-dasharray:none;stroke-dashoffset:100;stroke-opacity:1;paint-order:stroke markers fill"
       id="rect4618"
       width="9.0714283"
       height="10.583333"
       x="87.312492"
       y="132.20238"
       rx="2.9848201"
       ry="5.630651" />
    <rect
       ry="5.630651"
       rx="2.9848201"
       y="132.20238"
       x="78.241066"
       height="10.583333"
       width="9.0714283"
       id="rect4622"
       style="opacity:1;fill:#ffffff;fill-opacity:0.96132597;stroke:none;stroke-width:0.1190625;stroke-linecap:round;stroke-linejoin:round;stroke-miterlimit:4;stroke-dasharray:none;stroke-dashoffset:100;stroke-opacity:1;paint-order:stroke markers fill" />
    <rect
       style="opacity:1;fill:#ffffff;fill-opacity:0.96132597;stroke:none;stroke-width:0.1190625;stroke-linecap:round;stroke-linejoin:round;stroke-miterlimit:4;stroke-dasharray:none;stroke-dashoffset:100;stroke-opacity:1;paint-order:stroke markers fill"
       id="rect4624"
       width="9.0714283"
       height="10.583333"
       x="69.16964"
       y="132.20238"
       rx="2.9848201"
       ry="5.630651" />
  </g>
</svg>
